<?xml version="1.0" encoding="utf-8"?>
<!-- Generator: Adobe Illustrator 23.0.0, SVG Export Plug-In . SVG Version: 6.00 Build 0)  -->
<svg version="1.1" id="Layer_1" xmlns="http://www.w3.org/2000/svg" xmlns:xlink="http://www.w3.org/1999/xlink" x="0px" y="0px"
	 width="640px" height="647.47px" viewBox="0 0 640 647.47" style="enable-background:new 0 0 640 647.47;" xml:space="preserve">
<g>
	<g>
		<g>
			<g>
				<path style="fill:#B3BCBC;" d="M143.69,401.02c-7.68,0.66-15.21,3.18-21.82,7.3c-3.05,1.9-6.08,4.39-7.07,7.94
					c-0.21,0.75-0.27,1.68,0.28,2.21c0.41,0.39,1.02,0.43,1.57,0.44C127.75,418.98,138.93,411.39,143.69,401.02"/>
			</g>
		</g>
		<g>
			<g>
				<path style="fill:#B3BCBC;" d="M142.88,400.85c-6.22-0.12-12.49-0.25-18.59-1.5c-6.11-1.25-12.11-3.71-16.76-7.99
					c-1.41-1.3-2.77-2.98-2.71-4.93C118.98,386.72,132.75,390.6,142.88,400.85"/>
			</g>
		</g>
		<g>
			<g>
				<path style="fill:#B3BCBC;" d="M143.55,401.02c-4.34-4.53-8.35-9.54-10.83-15.39c-2.48-5.84-3.32-12.63-1.27-18.65
					c4.25,2.53,6.7,7.35,8.44,12.1c2.69,7.34,4.22,15.13,4.5,22.97"/>
			</g>
		</g>
		<g>
			<g>
				<path style="fill:#B3BCBC;" d="M164.07,410.46c-4.83,4.8-7.35,11.29-8.62,18.09c-1.27,6.8-0.46,14.01,2.29,20.32
					c4.97-4.38,6.63-11.62,6.74-18.38c0.11-6.76-1.06-13.17-0.43-19.89"/>
			</g>
		</g>
		<g>
			<g>
				<path style="fill:#B3BCBC;" d="M167.85,411.58c-12.19-7.59-20.17-21.94-20.38-36.67C158.57,383.7,166.58,397.16,167.85,411.58"
					/>
			</g>
		</g>
		<g>
			<g>
				<path style="fill:#B3BCBC;" d="M189.74,416.85c-5.05,3.44-9.08,8.44-11.46,14.18c-2.38,5.75-3.08,12.23-2,18.38
					c0.15,0.84,0.45,1.81,1.24,2.05c0.68,0.21,1.38-0.26,1.92-0.74c4.45-3.95,6.48-10.08,7.49-16.05
					c1.01-5.97,1.22-12.12,2.91-17.92"/>
			</g>
		</g>
		<g>
			<g>
				<path style="fill:#B3BCBC;" d="M188.81,416.36c-8.46-6.31-15.12-15.17-18.95-25.2c-1.51-3.96-2.56-8.56-0.74-12.38
					c0.16-0.33,0.36-0.67,0.7-0.77c0.32-0.1,0.66,0.06,0.95,0.22c2.68,1.45,4.85,3.78,6.55,6.36c1.71,2.59,2.99,5.44,4.27,8.28
					c2.36,5.25,5.4,10.51,5.83,16.29c0.1,1.37,0.33,2.76,0.59,4.11c0.27,1.35,0.52,1.7,0.67,2.81"/>
			</g>
		</g>
		<g>
			<g>
				<path style="fill:#B3BCBC;" d="M222.84,397.29c-8.74-7.17-14.18-19.87-14.05-31.41c0.01-0.85,0.12-1.84,0.82-2.29
					c1.07-0.68,2.33,0.5,3.04,1.57C218.87,374.6,222.44,385.88,222.84,397.29"/>
			</g>
		</g>
		<g>
			<g>
				<path style="fill:#B3BCBC;" d="M227.01,397.1c12.52-5.32,22.56-17.41,26.45-30.84c-7.13,1.3-13.78,5.26-18.45,10.99
					C230.33,382.98,227.07,389.6,227.01,397.1"/>
			</g>
		</g>
		<g>
			<g>
				<path style="fill:#B3BCBC;" d="M225.03,389.35c-1.31-14.47,5.25-29.68,16.04-38.98c2.13,5.73,1.04,12.31-1.58,17.81
					c-2.62,5.5-6.64,10.14-10.61,14.69C227.33,384.63,225.13,386.96,225.03,389.35"/>
			</g>
		</g>
		<g>
			<g>
				<path style="fill:#B3BCBC;" d="M199.61,363.99c-2.5-6.87-5.02-13.8-8.83-20c-3.81-6.2-9.04-11.68-15.62-14.43
					c2.48,15.25,11.23,28.51,24.71,35.14"/>
			</g>
		</g>
		<g>
			<g>
				<path style="fill:#B3BCBC;" d="M211.07,339.98c-2.33-17.05,3.76-36.85,16.02-48.49C231.52,308.63,224.97,329.62,211.07,339.98"
					/>
			</g>
		</g>
		<g>
			<g>
				<path style="fill:#B3BCBC;" d="M208.75,345.48c10.65-5.92,23.38-5.93,35.09-9.04c2.5-0.67,5.04-1.61,6.89-3.49
					c1.85-1.87,2.84-4.87,1.79-7.32c-0.87-2.03-2.97-3.28-5.09-3.62c-2.12-0.34-4.28,0.1-6.37,0.65
					c-12.77,3.37-23.28,11.37-31.69,21.88"/>
			</g>
		</g>
		<g>
			<g>
				<path style="fill:#B3BCBC;" d="M208.25,356.73c2.63-1.04,4.21-0.45,7.02-0.28c9.53,0.61,19.19-1.1,27.99-4.95
					c0.92-0.4,1.99-1.11,1.84-2.13c-0.12-0.89-1.1-1.33-1.94-1.55c-6.02-1.61-12.45-0.92-18.41,0.91c-5.97,1.83-11.57,2.8-16.8,7.59
					"/>
			</g>
		</g>
		<g>
			<g>
				<path style="fill:#B3BCBC;" d="M171.61,319.64c13.22,1.47,26.97-3.18,36.79-12.45c0.45-0.42,0.91-0.91,0.97-1.53
					c0.14-1.4-1.68-2-3.04-2.03C192.68,303.37,180.15,308.59,171.61,319.64"/>
			</g>
		</g>
		<g>
			<g>
				<path style="fill:#B3BCBC;" d="M176.98,311.08c4.49-15.97,16.84-29.33,32.04-34.68c-1.2,8.28-5.76,15.78-11.69,21.47
					C191.41,303.57,184.43,307.83,176.98,311.08"/>
			</g>
		</g>
		<g>
			<g>
				<path style="fill:#B3BCBC;" d="M160.07,294.09c-7.3-8.25-11.85-15.71-18.93-24.19c-0.57-0.68-1.34-1.42-2.17-1.18
					c-1.16,0.34-1.08,2.07-0.69,3.25c3.42,10.24,11.67,18.61,21.63,21.94"/>
			</g>
		</g>
		<g>
			<g>
				<path style="fill:#B3BCBC;" d="M160.17,295.56c3.12-8.26,3.96-16.54,3.86-25.42c-0.08-6.17-1.17-12.8-5.35-17.19
					c-4.01,2.99-6.13,8.17-6.45,13.27c-0.32,5.11,0.97,10.18,2.67,14.99C156.59,286.02,158.71,290.67,160.17,295.56"/>
			</g>
		</g>
		<g>
			<g>
				<path style="fill:#B3BCBC;" d="M171.25,280.65c9.24-14.84,15.9-31.41,19.55-48.67c-5.45,1.51-9.49,6.28-12.41,11.29
					c-6.67,11.44-9.59,24.26-7.39,37.42"/>
			</g>
		</g>
		<g>
			<g>
				<path style="fill:#B3BCBC;" d="M167.63,297.37c7-4.3,13.92-8.93,19.54-15.03c5.52-6,9.61-13.23,13.64-20.38
					c0.33-0.59,0.68-1.26,0.53-1.93c-0.16-0.73-0.89-1.2-1.61-1.27c-0.72-0.07-1.42,0.18-2.1,0.45
					c-7.76,3.13-14.05,9.37-18.76,16.48C174.17,282.8,170.89,289.44,167.63,297.37"/>
			</g>
		</g>
		<g>
			<g>
				<path style="fill:#B3BCBC;" d="M142.65,342.62c-11.11-5.8-18.63-16.8-21.71-29.28c5.76,2.15,10,7.29,13.16,12.72
					c3.16,5.42,5.44,11.77,9.02,16.91"/>
			</g>
		</g>
		<g>
			<g>
				<path style="fill:#B3BCBC;" d="M118.33,347.12c-11.18,8.35-18.69,21.79-20.1,35.99c6.15-3.38,10.75-9.26,13.93-15.68
					c3.17-6.42,5.05-13.43,6.9-20.38"/>
			</g>
		</g>
		<g>
			<g>
				<path style="fill:#B3BCBC;" d="M103.49,352.23c-5.72,3.74-11.41,7.08-15.41,12.76c-3.99,5.68-6.01,13.08-4.37,19.9
					c5.47-3.33,9.64-8.62,12.69-14.38C99.45,364.74,101.48,358.47,103.49,352.23"/>
			</g>
		</g>
		<g>
			<g>
				<path style="fill:#B3BCBC;" d="M121.19,338.77c-7.24,0.48-14.65,1-21.29,4.03c-6.64,3.03-12.46,9.12-13.2,16.6
					c6.59-0.78,12.37-4.76,17.67-8.89c5.3-4.13,11.76-9.24,18.08-11.29"/>
			</g>
		</g>
		<g>
			<g>
				<path style="fill:#B3BCBC;" d="M121.41,339.01c-14.41-1.99-28.54-14.7-33.56-28.83C101.81,315.38,113.9,325.77,121.41,339.01"/>
			</g>
		</g>
		<g>
			<g>
				<path style="fill:#B3BCBC;" d="M126.9,297.38c-1.17-4.98-2.93-9.79-4.3-14.72c-1.37-4.93-2.36-10.05-1.92-15.16
					c0.45-5.11,2.47-10.22,6.28-13.5c5.94,13.53,6.01,29.69,0.19,43.28"/>
			</g>
		</g>
		<g>
			<g>
				<path style="fill:#B3BCBC;" d="M126.38,305.57c-5.26-1.68-11.89-4.36-17.39-4.39c-5.51-0.03-11.29,1.86-14.81,6.25
					C104.39,312.11,116.74,311.4,126.38,305.57"/>
			</g>
		</g>
		<g>
			<g>
				<path style="fill:#B3BCBC;" d="M123.82,300.25c-4.93-3.15-9.91-6.33-14.04-10.54c-4.13-4.21-7.38-9.61-8.04-15.57
					c11.01,5.38,19.41,13.8,22.38,26.03"/>
			</g>
		</g>
		<g>
			<g>
				<path style="fill:#B3BCBC;" d="M107.1,269.97c-3.83-10.84-0.73-23.42,5.55-32.96c0.79-1.2,1.69-2.39,2.93-3.08
					c1.24-0.69,2.9-0.75,3.96,0.21c1.4,1.26,1.17,3.54,0.77,5.42C117.95,250.48,113.43,260.9,107.1,269.97"/>
			</g>
		</g>
		<g>
			<g>
				<path style="fill:#B3BCBC;" d="M101.96,262.67c-3.8-5.95-7.65-12-9.77-18.79s-2.34-14.53,0.96-20.8
					c5.02,5.09,6.72,12.72,7.35,19.97c0.63,7.25,0.46,14.69,2.68,21.6"/>
			</g>
		</g>
		<g>
			<g>
				<path style="fill:#B3BCBC;" d="M104.67,266.7c-6.8-4.78-12.95-12.79-20.74-15.51c-5.45-1.9-11.55-1.33-16.8-3.74
					c1.32,5.04,5.02,9.15,9.37,11.79c4.35,2.64,9.33,3.95,14.29,4.86C95.75,265.01,99.77,265.47,104.67,266.7"/>
			</g>
		</g>
		<g>
			<g>
				<g>
					<path style="fill:#B3BCBC;" d="M242.15,456.34c-0.17,0.13-31.44-42.72-69.85-95.7c-38.42-53-69.43-96.05-69.26-96.18
						s31.44,42.71,69.86,95.71C211.31,413.15,242.32,456.21,242.15,456.34z"/>
				</g>
			</g>
		</g>
		<g>
			<g>
				<g>
					<path style="fill:#B3BCBC;" d="M185.14,299.46c0.04,0.03-0.36,0.68-1.12,1.82c-0.84,1.26-1.91,2.89-3.21,4.84
						c-2.69,4.09-6.33,9.8-10.06,16.29c-3.62,6.53-7.27,12.37-8.27,17.18c-0.51,2.39-0.34,4.4-0.02,5.72c0.32,1.33,0.69,2,0.63,2.03
						c-0.02,0.01-0.13-0.15-0.31-0.46c-0.16-0.33-0.4-0.82-0.6-1.49c-0.42-1.33-0.68-3.42-0.22-5.91c0.46-2.48,1.58-5.27,3.07-8.17
						c1.49-2.9,3.2-6.04,5.08-9.3c3.75-6.5,7.46-12.19,10.27-16.21c1.4-2.01,2.58-3.61,3.4-4.7
						C184.62,300.01,185.1,299.43,185.14,299.46z"/>
				</g>
			</g>
		</g>
		<g>
			<g>
				<g>
					<path style="fill:#B3BCBC;" d="M175.12,259.99c0.03,0.01-0.01,0.29-0.09,0.82c-0.1,0.62-0.23,1.39-0.39,2.33
						c-0.39,2.12-0.93,5.01-1.58,8.54c-1.42,7.29-3.35,17.18-5.49,28.11c-2.14,10.97-3.6,21-4.37,28.28
						c-0.39,3.64-0.63,6.6-0.77,8.65c-0.07,0.95-0.13,1.73-0.17,2.36c-0.05,0.54-0.08,0.82-0.11,0.82c-0.03,0-0.04-0.29-0.04-0.83
						c0-0.54-0.01-1.34,0.03-2.37c0.05-2.05,0.22-5.02,0.54-8.68c0.63-7.32,2.01-17.39,4.16-28.38c2.18-10.97,4.21-20.89,5.7-28.07
						c0.75-3.5,1.36-6.38,1.81-8.49c0.21-0.93,0.39-1.69,0.53-2.3C175.02,260.26,175.1,259.99,175.12,259.99z"/>
				</g>
			</g>
		</g>
		<g>
			<g>
				<g>
					<path style="fill:#B3BCBC;" d="M164.99,311.27c-0.23,0.05-1.21-4.22-2.83-9.34c-1.6-5.13-3.46-9.07-3.26-9.18
						c0.17-0.11,2.35,3.73,3.97,8.93c0.82,2.59,1.39,4.98,1.73,6.72C164.95,310.15,165.09,311.24,164.99,311.27z"/>
				</g>
			</g>
		</g>
		<g>
			<g>
				<g>
					<path style="fill:#B3BCBC;" d="M165.98,351.14c-0.02,0.05-0.68-0.1-1.86-0.42c-1.32-0.37-3-0.84-5-1.4
						c-4.22-1.2-10.05-2.86-16.5-4.61c-6.46-1.75-12.32-3.26-16.57-4.36c-2.01-0.53-3.69-0.97-5.02-1.31
						c-1.18-0.32-1.83-0.52-1.82-0.58c0.01-0.05,0.68,0.05,1.89,0.28c1.2,0.23,2.94,0.6,5.08,1.07c4.28,0.96,10.17,2.39,16.64,4.14
						c6.46,1.75,12.27,3.5,16.46,4.83c2.09,0.67,3.78,1.23,4.94,1.64C165.37,350.84,166,351.09,165.98,351.14z"/>
				</g>
			</g>
		</g>
		<g>
			<g>
				<g>
					<path style="fill:#B3BCBC;" d="M150.38,346.75c-0.02,0.18-4.03-0.77-8.01-3.87c-2.84-2.15-4.73-4.68-5.47-5.92l0.28-0.18
						c0.24,0.59,0.35,0.92,0.29,0.95c-0.05,0.03-0.26-0.25-0.59-0.79l0.28-0.18c0.94,1.08,2.89,3.41,5.65,5.51
						C146.67,345.26,150.46,346.52,150.38,346.75z"/>
				</g>
			</g>
		</g>
		<g>
			<g>
				<g>
					<path style="fill:#B3BCBC;" d="M130.43,341.36c-0.01,0.15-1.34-0.21-3.34,0.41c-2,0.58-4.44,2.26-6.84,4.49
						c-2.43,2.19-4.38,4.45-5.71,6.14c-1.34,1.7-2.1,2.81-2.19,2.74c-0.08-0.05,0.53-1.27,1.77-3.08c1.25-1.8,3.17-4.16,5.64-6.39
						c2.43-2.25,5.04-3.95,7.2-4.43C129.12,340.72,130.47,341.3,130.43,341.36z"/>
				</g>
			</g>
		</g>
		<g>
			<g>
				<g>
					<path style="fill:#B3BCBC;" d="M125.64,340.01c0.02,0.13-1.76,0.49-4.54,1.43c-2.77,0.93-6.51,2.54-10.26,5.01
						c-3.75,2.48-6.74,5.31-8.72,7.52c-1.99,2.21-3.05,3.74-3.16,3.66c-0.04-0.03,0.19-0.44,0.64-1.15
						c0.45-0.72,1.17-1.71,2.12-2.87c1.9-2.33,4.9-5.28,8.71-7.81c3.82-2.51,7.66-4.08,10.51-4.88c1.42-0.41,2.59-0.67,3.41-0.78
						C125.18,340,125.64,339.96,125.64,340.01z"/>
				</g>
			</g>
		</g>
		<g>
			<g>
				<g>
					<path style="fill:#B3BCBC;" d="M136.28,310.33c-0.13,0.17-4.33-3.11-9.37-7.33c-5.05-4.21-9.03-7.76-8.9-7.93
						c0.13-0.17,4.32,3.11,9.37,7.33C132.43,306.61,136.41,310.16,136.28,310.33z"/>
				</g>
			</g>
		</g>
		<g>
			<g>
				<g>
					<path style="fill:#B3BCBC;" d="M136.45,310.2c-0.13,0.2-2.91-2.02-6.93-3.36c-4.02-1.44-7.5-1.02-7.52-1.24
						c-0.02-0.09,0.84-0.36,2.27-0.4c1.43-0.05,3.41,0.19,5.48,0.9C133.93,307.5,136.58,310.07,136.45,310.2z"/>
				</g>
			</g>
		</g>
		<g>
			<g>
				<g>
					<path style="fill:#B3BCBC;" d="M225.56,433.43c-0.06,0.06-0.94-0.89-2.73-2.35c-1.78-1.47-4.53-3.38-8.16-5.28
						c-7.26-3.84-18.05-7.48-30.26-10.03c-6.1-1.33-11.94-2.52-17.19-3.93c-5.25-1.4-9.89-3.01-13.66-4.7
						c-3.77-1.68-6.67-3.39-8.58-4.7c-0.95-0.66-1.68-1.19-2.16-1.57c-0.48-0.38-0.72-0.59-0.71-0.61c0.04-0.06,1.07,0.71,3.02,1.93
						c1.95,1.22,4.86,2.84,8.63,4.45c3.76,1.61,8.39,3.16,13.63,4.51c5.23,1.36,11.06,2.53,17.17,3.86
						c12.24,2.56,23.09,6.3,30.35,10.3c3.63,1.99,6.36,3.99,8.1,5.54c0.87,0.78,1.52,1.41,1.93,1.87
						C225.37,433.17,225.58,433.41,225.56,433.43z"/>
				</g>
			</g>
		</g>
		<g>
			<g>
				<g>
					<path style="fill:#B3BCBC;" d="M230.55,369.65c0.05,0.03-0.34,0.85-0.99,2.33c-0.64,1.5-1.48,3.7-2.24,6.51
						c-0.76,2.81-1.41,6.23-1.84,10.07c-0.43,3.84-0.65,8.09-0.78,12.57c-0.25,8.96-0.69,17.06-0.24,22.9
						c0.2,2.92,0.5,5.27,0.76,6.88c0.25,1.62,0.41,2.51,0.35,2.52c-0.03,0.01-0.1-0.21-0.21-0.63c-0.1-0.42-0.28-1.03-0.43-1.84
						c-0.35-1.61-0.74-3.96-1-6.89c-0.59-5.88-0.23-14.02,0.02-22.97c0.13-4.48,0.38-8.76,0.85-12.63
						c0.47-3.87,1.19-7.32,2.02-10.14c0.83-2.82,1.77-5.02,2.49-6.49c0.35-0.74,0.69-1.28,0.89-1.66
						C230.4,369.82,230.52,369.64,230.55,369.65z"/>
				</g>
			</g>
		</g>
		<g>
			<g>
				<g>
					<path style="fill:#B3BCBC;" d="M240.2,381.58c0.07,0.08-1.19,1.34-3.23,3.37c-2.02,2.04-4.85,4.84-7.33,8.44
						c-2.45,3.62-3.94,7.39-4.67,10.18c-0.75,2.8-0.73,4.63-0.86,4.62c-0.04,0-0.1-0.45-0.09-1.28c0.01-0.83,0.13-2.03,0.44-3.47
						c0.61-2.89,2.05-6.78,4.57-10.49c2.55-3.69,5.47-6.46,7.59-8.4C238.75,382.62,240.13,381.51,240.2,381.58z"/>
				</g>
			</g>
		</g>
		<g>
			<g>
				<g>
					<path style="fill:#B3BCBC;" d="M224.16,406.01c-0.27,0.04-0.51-3.82-1.76-8.29c-1.35-4.44-3.31-7.73-3.07-7.86
						c0.08-0.05,0.64,0.72,1.4,2.06c0.75,1.34,1.71,3.28,2.38,5.57c0.67,2.29,0.93,4.45,1.05,5.99
						C224.28,405.04,224.26,406,224.16,406.01z"/>
				</g>
			</g>
		</g>
		<g>
			<g>
				<g>
					<path style="fill:#B3BCBC;" d="M216.97,328.03c0.02,0.01-0.1,0.28-0.35,0.77c-0.3,0.56-0.67,1.27-1.12,2.13
						c-0.51,0.91-1.11,2.04-1.73,3.39c-0.63,1.34-1.42,2.84-2.1,4.58c-0.36,0.86-0.74,1.77-1.14,2.7c-0.39,0.94-0.72,1.96-1.1,2.99
						c-0.8,2.05-1.44,4.32-2.16,6.68c-1.31,4.77-2.47,10.11-3.18,15.79c-0.66,5.69-0.81,11.16-0.68,16.12
						c0.14,2.48,0.22,4.84,0.51,7.03c0.13,1.1,0.2,2.16,0.36,3.17c0.16,1.01,0.31,1.98,0.46,2.91c0.25,1.86,0.66,3.51,0.95,4.98
						c0.28,1.47,0.59,2.71,0.87,3.73c0.24,0.95,0.43,1.73,0.58,2.35c0.13,0.54,0.18,0.83,0.15,0.84c-0.02,0.01-0.13-0.26-0.3-0.79
						c-0.19-0.61-0.43-1.38-0.72-2.31c-0.32-1-0.68-2.24-0.99-3.71c-0.33-1.46-0.78-3.11-1.06-4.98c-0.16-0.93-0.33-1.91-0.51-2.92
						c-0.17-1.02-0.26-2.09-0.4-3.19c-0.31-2.2-0.42-4.58-0.58-7.07c-0.18-5-0.04-10.51,0.62-16.25c0.72-5.73,1.9-11.1,3.26-15.9
						c0.75-2.38,1.42-4.65,2.24-6.71c0.4-1.03,0.74-2.05,1.15-2.99c0.41-0.94,0.81-1.84,1.19-2.7c0.72-1.74,1.54-3.22,2.21-4.56
						c0.66-1.34,1.3-2.45,1.84-3.34c0.51-0.83,0.92-1.52,1.25-2.06C216.79,328.25,216.95,328.01,216.97,328.03z"/>
				</g>
			</g>
		</g>
		<g>
			<g>
				<g>
					<path style="fill:#B3BCBC;" d="M204.08,366.17c-0.06,0.03-0.53-1.24-0.17-3.31c0.33-2.05,1.68-4.75,4.09-6.75
						c2.41-1.98,5.06-2.92,6.93-3.48c1.9-0.54,3.1-0.72,3.12-0.63c0.03,0.11-1.13,0.48-2.96,1.15c-1.81,0.68-4.34,1.68-6.62,3.56
						c-2.27,1.88-3.6,4.36-4.04,6.26C203.96,364.89,204.22,366.16,204.08,366.17z"/>
				</g>
			</g>
		</g>
		<g>
			<g>
				<g>
					<path style="fill:#B3BCBC;" d="M203.21,373.32c-0.23,0.03-0.38-3.32-2.35-6.76c-1.92-3.47-4.67-5.26-4.52-5.45
						c0.05-0.08,0.79,0.25,1.83,1.08c1.04,0.82,2.32,2.19,3.34,3.99c1.01,1.8,1.53,3.63,1.7,4.97
						C203.39,372.48,203.29,373.32,203.21,373.32z"/>
				</g>
			</g>
		</g>
	</g>
	<g>
		<g>
			<path style="fill:#B3BCBC;" d="M201.37,461.86c12.79,15.72,29.67,28.71,49.25,39.88l31.96-24.84
				c-5.1-22.16-12.74-42.29-23.99-59.52L201.37,461.86z"/>
		</g>
	</g>
	<g>
		<g>
			<g>
				<path style="fill:#B3BCBC;" d="M272.66,447.98c0.12,0.17-10.3,8.49-23.27,18.57c-12.98,10.09-23.6,18.13-23.72,17.95
					c-0.12-0.17,10.29-8.49,23.27-18.58C261.92,455.85,272.54,447.81,272.66,447.98z"/>
			</g>
		</g>
	</g>
	<g>
		<g>
			<g>
				<path style="fill:#B3BCBC;" d="M276.26,454.48c0.12,0.17-9.64,7.98-21.8,17.43c-12.17,9.46-22.13,16.98-22.26,16.81
					c-0.12-0.17,9.64-7.98,21.81-17.43C266.17,461.84,276.13,454.31,276.26,454.48z"/>
			</g>
		</g>
	</g>
	<g>
		<g>
			<g>
				<path style="fill:#B3BCBC;" d="M222.71,462.12c0.17-0.13,2.77,3.18,5.82,7.39c3.05,4.21,5.39,7.73,5.22,7.86
					c-0.17,0.13-2.77-3.18-5.82-7.39C224.89,465.77,222.55,462.25,222.71,462.12z"/>
			</g>
		</g>
	</g>
	<g>
		<g>
			<g>
				<path style="fill:#B3BCBC;" d="M239.84,448.81c0.17-0.13,2.86,3.3,6.02,7.66c3.16,4.36,5.59,8,5.42,8.13
					c-0.17,0.13-2.86-3.3-6.02-7.66C242.1,452.58,239.67,448.94,239.84,448.81z"/>
			</g>
		</g>
	</g>
	<g>
		<g>
			<g>
				<path style="fill:#B3BCBC;" d="M255.81,436.19c0.17-0.13,2.91,3.37,6.13,7.82c3.22,4.45,5.7,8.16,5.54,8.29
					c-0.17,0.13-2.91-3.37-6.13-7.82C258.12,440.02,255.65,436.31,255.81,436.19z"/>
			</g>
		</g>
	</g>
	<g>
		<g>
			<g>
				<path style="fill:#B3BCBC;" d="M265.39,428.95c0.12,0.17-12.12,9.9-27.33,21.73c-15.22,11.83-27.66,21.28-27.79,21.11
					c-0.12-0.17,12.11-9.9,27.34-21.73C252.82,438.23,265.26,428.78,265.39,428.95z"/>
			</g>
		</g>
	</g>
</g>
<g>
	<path style="fill:#1A2E35;" d="M174.01,106.35c1.98-0.14,5.87-2.37,5.88-2.37c0.04-0.02-2.2-2.21-2.35-2.33
		c-1.81-1.4-6.1-3.02-8.17-1.5c-1.49,1.09-1.54,3.24-0.39,4.6C170.14,106.14,172.32,106.47,174.01,106.35z"/>
	<path style="fill:#1A2E35;" d="M181.33,117.43c1.8-0.65,4.78-3.61,5.02-3.85c1.58,1.74,3.35,3.39,5.22,4.96
		c1.07,0.9,2.17,1.77,3.29,2.63c-0.57-0.31-1.07-0.59-1.15-0.62c-2.1-0.86-6.66-1.24-8.26,0.79c-1.16,1.46-0.66,3.54,0.8,4.55
		c1.49,1.03,3.68,0.75,5.27,0.17c1.62-0.59,4.21-3.06,4.89-3.72c0.43,0.32,0.86,0.65,1.29,0.98c2.08,1.55,4.16,3.08,6.15,4.66
		c0.7,0.55,1.38,1.13,2.05,1.69c-0.5-0.28-0.93-0.51-1-0.54c-2.1-0.86-6.66-1.24-8.26,0.79c-1.16,1.46-0.66,3.54,0.8,4.55
		c1.49,1.02,3.68,0.75,5.27,0.17c1.54-0.56,3.96-2.82,4.77-3.6c0.68,0.6,1.35,1.21,1.98,1.83c0.42,0.43,0.85,0.82,1.25,1.28
		c0.4,0.44,0.8,0.89,1.2,1.32c0.73,0.87,1.49,1.76,2.18,2.63c0.49,0.6,0.94,1.18,1.4,1.76c-0.69-0.56-2.08-1.62-2.2-1.7
		c-1.95-1.18-6.4-2.27-8.28-0.52c-1.36,1.26-1.17,3.4,0.12,4.62c1.32,1.25,3.52,1.32,5.18,0.99c1.83-0.35,5.09-2.7,5.49-3
		c0.75,0.97,1.48,1.91,2.15,2.82c1.48,2,2.76,3.81,3.82,5.37l1.47-0.8c-1.13-1.59-2.5-3.46-4.11-5.53c-0.76-0.98-1.6-2.02-2.46-3.08
		c0.21-0.25,1.38-1.68,2.32-3.16c1.8,0.67,5.5,0.58,5.98,0.57c0.11,1.24,0.21,2.44,0.29,3.58c0.17,2.38,0.26,4.52,0.32,6.35
		l1.59-0.86c-0.09-1.67-0.22-3.55-0.41-5.62c-0.11-1.26-0.25-2.6-0.41-3.97c0.47-0.14,4.29-1.28,5.71-2.53
		c1.29-1.13,2.62-2.95,2.52-4.79c-0.1-1.81-1.58-3.31-3.39-3.01c-2.5,0.41-4.49,4.67-4.83,6.99c-0.02,0.14-0.08,1.64-0.11,2.6
		c-0.07-0.56-0.13-1.11-0.2-1.68c-0.14-1.14-0.32-2.28-0.51-3.5c-0.11-0.59-0.22-1.18-0.33-1.78c-0.1-0.6-0.28-1.21-0.41-1.83
		c-0.35-1.42-0.76-2.83-1.21-4.25c0.97-0.13,4.39-0.66,5.83-1.58c1.44-0.92,3.03-2.5,3.2-4.34c0.17-1.8-1.08-3.52-2.91-3.51
		c-2.53,0.01-5.12,3.92-5.8,6.15c-0.04,0.14-0.36,1.8-0.51,2.71c-0.28-0.85-0.55-1.7-0.86-2.55c-0.89-2.45-1.86-4.91-2.82-7.36
		c-0.29-0.75-0.58-1.5-0.87-2.26c0.34-0.04,4.43-0.58,6.04-1.61c1.44-0.92,3.03-2.5,3.2-4.34c0.17-1.8-1.08-3.52-2.91-3.5
		c-2.53,0.01-5.12,3.92-5.8,6.15c-0.05,0.17-0.5,2.56-0.59,3.17c-0.63-1.66-1.25-3.31-1.79-4.97c-0.75-2.29-1.37-4.58-1.81-6.84
		c0.16-0.02,4.42-0.56,6.08-1.61c1.44-0.92,3.03-2.5,3.2-4.34c0.17-1.8-1.08-3.52-2.91-3.51c-2.53,0.01-5.12,3.92-5.8,6.15
		c-0.05,0.18-0.54,2.75-0.59,3.22c-0.03-0.13-0.07-0.27-0.09-0.41c-0.44-2.42-0.57-4.82-0.58-7.08c-0.01-1.31,0.05-2.56,0.13-3.78
		c0.8-0.02,4.48-0.13,6.07-0.91c1.53-0.75,3.27-2.14,3.64-3.95c0.36-1.78-0.7-3.62-2.52-3.81c-2.52-0.27-5.5,3.31-6.42,5.45
		c-0.05,0.12-0.43,1.36-0.69,2.27c0.05-0.55,0.08-1.12,0.14-1.64c0.2-1.97,0.5-3.77,0.78-5.35c0.17-0.9,0.33-1.71,0.5-2.47
		c0.78-0.44,3.91-2.26,4.95-3.69c1.02-1.39,1.95-3.46,1.47-5.24c-0.47-1.75-2.23-2.88-3.93-2.18c-2.36,0.96-3.41,5.56-3.27,7.9
		c0.01,0.2,0.55,3.34,0.6,3.32c0,0,0.04-0.02,0.05-0.03c-0.17,0.73-0.35,1.51-0.52,2.36c-0.31,1.58-0.65,3.38-0.89,5.35
		c-0.25,1.97-0.46,4.13-0.49,6.41c-0.03,2.29,0.05,4.71,0.44,7.18c0,0.03,0.01,0.06,0.02,0.08c-0.33-0.69-1.32-2.58-1.41-2.71
		c-1.3-1.92-4.89-4.84-7.31-4.07c-1.74,0.56-2.44,2.58-1.76,4.25c0.7,1.71,2.67,2.72,4.31,3.15c1.85,0.48,5.91-0.28,6.24-0.34
		c0.4,2.35,0.99,4.74,1.71,7.11c0.41,1.36,0.87,2.72,1.35,4.07c-0.31-0.58-0.58-1.11-0.63-1.17c-1.3-1.92-4.89-4.84-7.31-4.07
		c-1.74,0.56-2.44,2.58-1.76,4.25c0.7,1.71,2.67,2.72,4.31,3.15c1.66,0.43,5.14-0.14,6.06-0.31c0.19,0.52,0.37,1.04,0.56,1.55
		c0.91,2.48,1.83,4.95,2.65,7.4c0.29,0.86,0.55,1.72,0.81,2.59c-0.27-0.52-0.51-0.95-0.55-1.02c-1.3-1.92-4.89-4.84-7.31-4.07
		c-1.74,0.56-2.44,2.58-1.76,4.25c0.7,1.71,2.67,2.72,4.31,3.15c1.59,0.42,4.8-0.09,5.89-0.28c0.24,0.89,0.48,1.78,0.68,2.66
		c0.12,0.6,0.27,1.17,0.36,1.78c0.1,0.6,0.2,1.2,0.3,1.79c0.15,1.14,0.31,2.32,0.42,3.44c0.09,0.78,0.16,1.52,0.23,2.27
		c-0.28-0.86-0.87-2.54-0.93-2.67c-0.67-1.4-2.27-3.38-4.01-4.45c-0.1-0.21-0.21-0.4-0.34-0.59c-1.05-1.45-3.08-1.85-4.43-0.58
		c-1.87,1.77-1.25,6.46-0.31,8.59c0.06,0.13,0.81,1.42,1.29,2.23c-0.36-0.43-0.7-0.85-1.07-1.29c-0.73-0.87-1.48-1.72-2.29-2.63
		c-0.4-0.43-0.81-0.86-1.23-1.29c-0.4-0.44-0.88-0.85-1.32-1.29c-1.04-0.98-2.14-1.93-3.28-2.85c0.73-0.66,3.31-3.06,4.02-4.65
		c0.71-1.59,1.19-3.81,0.35-5.45c-0.82-1.6-2.77-2.32-4.29-1.26c-2.1,1.46-2.18,6.19-1.56,8.44c0.04,0.14,0.66,1.7,1.02,2.56
		c-0.68-0.55-1.36-1.1-2.07-1.64c-2.05-1.54-4.17-3.03-6.27-4.53c-0.65-0.46-1.28-0.92-1.92-1.39c0.26-0.23,3.38-3.01,4.18-4.79
		c0.71-1.59,1.19-3.81,0.35-5.45c-0.82-1.6-2.77-2.31-4.29-1.26c-2.11,1.46-2.18,6.19-1.56,8.44c0.05,0.17,0.94,2.42,1.2,2.98
		c-1.41-1.02-2.81-2.05-4.14-3.13c-1.85-1.48-3.58-3.04-5.15-4.67c0.12-0.11,3.39-2.99,4.21-4.82c0.71-1.59,1.19-3.81,0.35-5.45
		c-0.82-1.6-2.77-2.31-4.29-1.26c-2.11,1.46-2.18,6.19-1.56,8.44c0.05,0.18,1.02,2.6,1.22,3.02c-0.09-0.1-0.2-0.19-0.29-0.29
		c-1.66-1.77-3.04-3.7-4.26-5.57c-0.71-1.09-1.33-2.17-1.9-3.23c0.66-0.47,3.66-2.66,4.58-4.23c0.88-1.5,1.59-3.65,0.93-5.38
		c-0.65-1.68-2.51-2.62-4.13-1.74c-2.25,1.21-2.83,5.9-2.45,8.21c0.02,0.13,0.37,1.38,0.63,2.29c-0.25-0.48-0.53-0.98-0.76-1.45
		c-0.88-1.76-1.59-3.43-2.2-4.91c-0.34-0.85-0.63-1.62-0.9-2.34c0.42-0.81,2.05-4.12,2.17-5.91c0.11-1.75-0.22-4-1.57-5.21
		c-1.32-1.19-3.39-1.12-4.44,0.42c-1.46,2.15,0.12,6.59,1.48,8.46c0.12,0.16,2.24,2.47,2.26,2.43c0,0,0.02-0.04,0.02-0.05
		c0.24,0.7,0.51,1.45,0.82,2.27c0.58,1.5,1.25,3.19,2.11,4.97c0.85,1.79,1.81,3.71,3.01,5.63c1.2,1.93,2.55,3.9,4.2,5.74
		c0.02,0.02,0.04,0.04,0.06,0.06c-0.64-0.38-2.48-1.39-2.63-1.45c-2.1-0.86-6.66-1.24-8.26,0.79c-1.16,1.46-0.66,3.54,0.8,4.55
		C177.55,118.28,179.74,118.01,181.33,117.43z"/>
	<path style="fill:#1A2E35;" d="M214.31,85.67c0.05,0-0.65-3.1-0.72-3.29c-0.76-2.21-3.48-6-6.02-5.92
		c-1.82,0.06-3.01,1.82-2.78,3.61c0.24,1.84,1.88,3.36,3.35,4.22C209.88,85.3,214.31,85.67,214.31,85.67z"/>
</g>
<g>
	<g>
		<g>
			<path style="fill:#B3BCBC;" d="M487.99,37.6l-8.92,3.3l-3.81-12.06C468.23,6.6,445.78-5.31,425.24,2.3
				c-20.55,7.61-31.53,31.9-24.5,54.15l3.81,12.06l-8.95,3.31c-6.96,2.58-10.73,10.88-8.34,18.43l24.81,78.5
				c2.42,7.66,10.1,11.74,17.06,9.16l92.39-34.23c7.07-2.62,10.84-10.95,8.42-18.6l-24.81-78.5
				C502.75,39.05,495.07,34.98,487.99,37.6z M417.58,50.21c-3.85-12.19,2.16-25.51,13.43-29.68c11.25-4.17,23.55,2.36,27.41,14.55
				l3.81,12.06l-40.83,15.13L417.58,50.21z M469.52,119.86l6.34,20.05c0.27,0.85-0.2,1.71-0.99,2.01L466,145.2
				c-0.68,0.25-1.55-0.12-1.81-0.97l-6.34-20.05c-6.87-0.3-13.24-5.01-15.63-12.56c-3.06-9.7,1.73-20.3,10.71-23.63
				c8.98-3.33,18.77,1.87,21.83,11.57C477.16,107.11,474.79,115.07,469.52,119.86z"/>
		</g>
	</g>
	<g>
		<path style="fill:#1A1D1E;" d="M478.69,40.69c0.08,0.24-16.53,6.68-37.11,14.39c-20.58,7.71-37.33,13.75-37.42,13.51
			c-0.08-0.24,16.53-6.68,37.11-14.39C461.85,46.5,478.6,40.45,478.69,40.69z"/>
	</g>
	<g>
		<g>
			<path style="fill:#1A1D1E;" d="M498.3,43.99c0.02-0.01,0.08,0.15,0.2,0.47c0.13,0.37,0.3,0.83,0.5,1.4
				c0.44,1.31,1.06,3.12,1.85,5.43c1.59,4.8,3.85,11.63,6.64,20.04c2.78,8.49,6.08,18.57,9.74,29.76
				c1.81,5.62,3.78,11.45,5.68,17.61c0.88,3.1,1.6,6.41,1.3,9.84c-0.15,1.7-0.6,3.41-1.4,4.96c-0.81,1.54-1.95,2.89-3.27,3.99
				c-2.66,2.2-5.78,3.49-8.78,4.65c-3.02,1.12-6,2.23-8.92,3.32c-5.85,2.17-11.49,4.26-16.87,6.25
				c-10.75,3.96-20.43,7.53-28.58,10.54c-8.1,2.95-14.68,5.35-19.3,7.03c-2.23,0.79-4,1.42-5.26,1.87
				c-0.56,0.19-1.02,0.34-1.38,0.46c-0.31,0.1-0.47,0.14-0.48,0.13c-0.01-0.01,0.15-0.09,0.45-0.22c0.35-0.14,0.79-0.32,1.35-0.55
				c1.25-0.49,2.99-1.17,5.2-2.03c4.6-1.75,11.14-4.24,19.2-7.31c8.14-3.06,17.8-6.7,28.52-10.73c5.37-2.01,11.01-4.12,16.85-6.31
				c2.92-1.09,5.9-2.2,8.91-3.33c2.99-1.15,6.02-2.42,8.53-4.5c1.24-1.04,2.29-2.29,3.05-3.71c0.74-1.43,1.15-3.01,1.3-4.61
				c0.29-3.22-0.39-6.44-1.25-9.49c-1.86-6.1-3.84-11.99-5.62-17.6c-3.59-11.21-6.83-21.31-9.56-29.82
				c-2.67-8.45-4.84-15.31-6.37-20.13c-0.72-2.33-1.28-4.17-1.69-5.49c-0.17-0.59-0.31-1.06-0.42-1.44
				C498.33,44.17,498.29,44,498.3,43.99z"/>
		</g>
	</g>
	<g>
		<g>
			<path style="fill:#1A1D1E;" d="M449.57,19.27c-0.05,0.08-0.92-0.48-2.62-1.19c-1.71-0.67-4.29-1.46-7.56-1.57
				c-3.25-0.12-7.2,0.4-11.15,2.18c-3.93,1.76-7.81,4.9-10.58,9.16c-2.83,4.24-4.07,9.16-4.07,13.61
				c-0.04,4.47,0.88,8.46,1.76,11.73c0.91,3.27,1.85,5.87,2.46,7.67c0.62,1.8,0.96,2.81,0.9,2.83c-0.06,0.02-0.5-0.93-1.22-2.7
				c-0.72-1.77-1.74-4.33-2.74-7.62c-0.97-3.28-1.97-7.31-1.98-11.92c-0.05-4.58,1.22-9.74,4.15-14.13c2.88-4.42,6.91-7.64,11-9.42
				c4.1-1.8,8.18-2.26,11.51-2.05c3.35,0.2,5.97,1.1,7.66,1.89c0.84,0.43,1.48,0.77,1.88,1.07
				C449.38,19.09,449.59,19.25,449.57,19.27z"/>
		</g>
	</g>
	<g>
		<g>
			<path style="fill:#1A1D1E;" d="M450.36,89.42c-0.01-0.02,0.29-0.18,0.88-0.45c0.58-0.28,1.48-0.64,2.67-1
				c1.18-0.39,2.7-0.67,4.5-0.77c1.79-0.09,3.89,0.1,6.07,0.94c4.42,1.61,8.5,6.29,10.5,12.5c0.96,3.13,1.05,6.77,0.08,10.29
				c-1.03,3.5-2.92,6.87-5.66,9.69l0.11-0.48c2.3,6.53,4.8,13.64,7.41,21.04l0.16,0.45l-0.44,0.15c-1.25,0.44-2.6,0.9-3.96,1.37
				c-2.92,1.01-5.79,2.01-8.61,2.99l-0.43,0.15l-0.14-0.44c-2.37-7.43-4.97-14.44-6.86-21.14l0.37,0.31
				c-3.54-0.25-6.73-1.79-9.26-3.79c-2.55-2.03-4.5-4.54-5.81-7.19c-1.29-2.66-1.94-5.48-1.83-8.07c0.06-2.6,0.64-4.95,1.45-6.93
				c1.61-4,4.02-6.51,5.8-7.88C449.18,89.78,450.36,89.42,450.36,89.42c0.04,0.08-1.1,0.53-2.83,1.95c-1.7,1.42-3.99,3.93-5.5,7.86
				c-1.51,3.83-2.16,9.34,0.53,14.48c1.29,2.54,3.2,4.95,5.66,6.89c2.45,1.92,5.51,3.36,8.84,3.57l0.29,0.02l0.08,0.29
				c1.91,6.65,4.52,13.63,6.91,21.09l-0.57-0.29c2.82-0.98,5.69-1.98,8.61-2.99c1.36-0.47,2.7-0.94,3.96-1.37l-0.28,0.6
				c-2.59-7.4-5.08-14.52-7.36-21.06l-0.09-0.26l0.21-0.21c2.59-2.65,4.48-5.94,5.47-9.27c0.94-3.36,0.89-6.82-0.01-9.84
				c-1.89-6.02-5.78-10.6-10-12.21c-2.08-0.84-4.12-1.07-5.87-1.02c-1.75,0.06-3.26,0.3-4.44,0.63
				C451.6,88.88,450.39,89.5,450.36,89.42z"/>
		</g>
	</g>
</g>
<g>
	<g>
		<g>
			<path style="fill:#375A64;" d="M421.2,629.64l-177.01-0.85c-21.29-0.1-38.47-18.05-38.38-40.1l1.88-459.58
				c0.09-22.06,17.43-39.87,38.74-39.76l177.01,0.85c21.29,0.1,38.47,18.05,38.38,40.1l-1.88,459.58
				C459.84,611.94,442.5,629.74,421.2,629.64z"/>
		</g>
		<g>
			<path style="fill:#FFFFFF;" d="M423.18,106.05l-34.32-0.16c-4.6-0.02-8.35,4-8.37,8.98l-0.03,6.45c-0.02,4.98-3.77,9-8.37,8.98
				l-66.9-0.32c-4.6-0.02-8.32-4.08-8.3-9.06l0.03-6.45c0.02-4.98-3.7-9.04-8.3-9.06l-12.07-0.06l-30.04-0.14
				c-14.92-0.07-27.07,12.4-27.13,27.85l-1.83,448.59c-0.06,15.44,11.97,28.01,26.88,28.09l176.66,0.84
				c14.92,0.07,27.06-12.4,27.13-27.85l1.83-448.59C450.12,118.7,438.08,106.12,423.18,106.05z"/>
		</g>
		<g>
			<g>
				<g>
					<g>
						<path style="fill:#9999F2;" d="M399.4,550.73l-131.36-0.63c-1.36-0.01-2.46-1.54-2.45-3.43l0.15-35.59
							c0.01-1.89,1.12-3.41,2.48-3.4l131.36,0.63c1.36,0.01,2.46,1.54,2.45,3.43l-0.15,35.59
							C401.87,549.21,400.76,550.74,399.4,550.73z"/>
					</g>
					<g>
					</g>
				</g>
			</g>
		</g>
	</g>
	<g>
		<g>
			
				<rect x="248.61" y="237.78" transform="matrix(1 4.780206e-03 -4.780206e-03 1 1.1604 -1.2946)" style="fill:#ABA9ED;" width="45.58" height="8.66"/>
		</g>
		<g>
			<g>
				<path style="fill:#E1E1E1;" d="M427.87,291.03c-0.01-0.04,0.38,0.02,1.04-0.25c0.62-0.25,1.6-1.03,1.72-2.47
					c-0.01-2.93-0.01-7.18-0.02-12.64c0-2.75,0-5.8,0-9.14c0-0.84,0-1.69,0-2.56c0.02-0.89,0.02-1.72-0.5-2.4
					c-0.47-0.68-1.26-1.12-2.1-1.12c-0.91,0-1.83,0-2.78,0c-7.54-0.02-16.12-0.03-25.6-0.05c-37.97-0.15-90.36-0.35-148.23-0.57
					c-0.76-0.01-1.51,0.38-1.95,1.02c-0.49,0.65-0.47,1.42-0.46,2.4c-0.01,1.86-0.02,3.72-0.02,5.57c-0.02,3.7-0.03,7.38-0.05,11.03
					c-0.01,1.83-0.02,3.64-0.02,5.45c0.03,0.87-0.08,1.91,0.07,2.58c0.18,0.74,0.71,1.36,1.38,1.65c0.35,0.15,0.68,0.2,1.1,0.19
					l1.3,0.01l2.59,0.01c1.72,0.01,3.44,0.02,5.14,0.03c13.65,0.08,26.81,0.15,39.36,0.22c25.08,0.16,47.66,0.3,66.64,0.42
					c18.94,0.15,34.28,0.28,44.92,0.37c5.28,0.06,9.39,0.11,12.21,0.15c1.37,0.03,2.43,0.05,3.18,0.06
					C427.5,290.99,427.87,291.03,427.87,291.03s-0.37,0.03-1.08,0.04c-0.75,0.01-1.8,0.02-3.18,0.03
					c-2.83,0.01-6.94,0.02-12.22,0.03c-10.64-0.02-25.98-0.04-44.93-0.06c-18.98-0.06-41.56-0.14-66.64-0.22
					c-12.54-0.05-25.71-0.1-39.36-0.16c-1.71-0.01-3.42-0.01-5.14-0.02l-2.59-0.01l-1.3-0.01c-0.44,0.01-0.99-0.06-1.45-0.27
					c-0.93-0.4-1.67-1.26-1.91-2.28c-0.14-0.52-0.11-1.04-0.11-1.47l0.01-1.36c0.01-1.81,0.01-3.63,0.02-5.46
					c0.01-3.65,0.03-7.33,0.04-11.03c0.01-1.85,0.01-3.71,0.02-5.57c0.01-0.48-0.03-0.9,0.05-1.47c0.08-0.54,0.28-1.05,0.59-1.49
					c0.61-0.89,1.65-1.43,2.7-1.42c57.87,0.33,110.26,0.63,148.23,0.85c9.48,0.07,18.06,0.14,25.6,0.19
					c0.94,0.01,1.87,0.02,2.78,0.02c0.99,0.01,1.94,0.54,2.48,1.35c0.61,0.79,0.6,1.87,0.57,2.7c-0.01,0.87-0.01,1.73-0.02,2.56
					c-0.03,3.34-0.06,6.39-0.08,9.14c-0.07,5.47-0.12,9.73-0.15,12.66c-0.15,1.53-1.22,2.32-1.87,2.55
					C428.25,291.12,427.87,291.03,427.87,291.03z"/>
			</g>
		</g>
		<g>
			
				<rect x="260.84" y="271.18" transform="matrix(1 4.783758e-03 -4.783758e-03 1 1.3201 -1.4441)" style="fill:#9797EF;" width="83.37" height="8.1"/>
		</g>
		<g>
			
				<rect x="248.29" y="316.81" transform="matrix(1 4.780189e-03 -4.780189e-03 1 1.5382 -1.2921)" style="fill:#ABA9ED;" width="45.58" height="8.66"/>
		</g>
		<g>
			<g>
				<path style="fill:#E1E1E1;" d="M426.7,370.06c0-0.03,0.37,0,1.05-0.21c0.64-0.22,1.68-0.77,2.24-2.08
					c0.3-0.65,0.33-1.43,0.31-2.33c0-0.89-0.01-1.86-0.01-2.92c0-2.11-0.01-4.54-0.01-7.28c0-2.74,0-5.78,0-9.11
					c0-0.83,0-1.68,0-2.55c0.04-0.88-0.06-1.69-0.52-2.42c-0.43-0.72-1.12-1.29-1.93-1.55c-0.79-0.26-1.74-0.12-2.68-0.16
					c-7.51-0.02-16.06-0.03-25.51-0.05c-37.83-0.15-90.05-0.35-147.71-0.57c-1.6-0.04-3.08,1.31-3.24,2.95
					c-0.05,1.75-0.03,3.68-0.05,5.5c-0.02,3.69-0.03,7.35-0.05,10.99c-0.01,1.82-0.02,3.63-0.02,5.44c0.03,0.9-0.09,1.84,0.11,2.56
					c0.2,0.76,0.67,1.44,1.29,1.88c0.65,0.45,1.35,0.62,2.2,0.59l2.58,0.01c1.71,0.01,3.42,0.02,5.12,0.03
					c13.6,0.07,26.72,0.15,39.22,0.22c24.99,0.16,47.49,0.3,66.41,0.42c18.88,0.15,34.17,0.28,44.77,0.37
					c5.26,0.06,9.35,0.11,12.17,0.15c1.37,0.03,2.42,0.05,3.17,0.06C426.33,370.03,426.7,370.06,426.7,370.06s-0.37,0.03-1.08,0.04
					c-0.75,0.01-1.8,0.02-3.17,0.03c-2.82,0.01-6.91,0.02-12.17,0.03c-10.6-0.02-25.89-0.04-44.77-0.06
					c-18.91-0.06-41.42-0.13-66.41-0.21c-12.5-0.05-25.62-0.1-39.22-0.16c-1.7-0.01-3.41-0.02-5.12-0.02l-2.58-0.01
					c-0.87,0.05-1.93-0.17-2.71-0.75c-0.8-0.57-1.4-1.44-1.66-2.41c-0.26-1.03-0.11-1.92-0.15-2.82c0.01-1.8,0.01-3.62,0.02-5.44
					c0.01-3.64,0.03-7.3,0.04-10.99c0.02-1.87-0.01-3.64,0.05-5.6c0.2-2.11,2.1-3.85,4.16-3.8c57.67,0.33,109.88,0.63,147.71,0.85
					c9.45,0.07,18,0.14,25.51,0.19c0.93,0.05,1.86-0.1,2.82,0.2c0.93,0.3,1.71,0.96,2.19,1.78c0.51,0.81,0.62,1.84,0.57,2.68
					c-0.01,0.87-0.01,1.72-0.02,2.55c-0.03,3.33-0.06,6.37-0.08,9.11c-0.03,2.73-0.05,5.16-0.07,7.28
					c-0.01,1.05-0.02,2.02-0.03,2.92c0.02,0.87-0.03,1.74-0.37,2.41c-0.62,1.36-1.72,1.9-2.39,2.09
					C427.07,370.13,426.7,370.06,426.7,370.06z"/>
			</g>
		</g>
		<g>
			
				<rect x="247.95" y="399.24" transform="matrix(1 4.760072e-03 -4.760072e-03 1 1.9241 -1.2842)" style="fill:#ABA9ED;" width="45.58" height="8.66"/>
		</g>
		<g>
			<g>
				<path style="fill:#E1E1E1;" d="M426.36,452.49c0-0.03,0.37,0,1.05-0.2c0.65-0.22,1.68-0.77,2.24-2.08
					c0.3-0.65,0.33-1.43,0.31-2.33c0-0.89-0.01-1.86-0.01-2.92c0-2.11-0.01-4.54-0.01-7.28c0-2.74,0-5.78,0-9.11
					c0-0.83,0-1.68,0-2.55c0.04-0.88-0.06-1.69-0.52-2.42c-0.43-0.72-1.12-1.29-1.93-1.55c-0.79-0.26-1.74-0.12-2.68-0.16
					c-7.51-0.02-16.06-0.03-25.51-0.05c-37.83-0.15-90.04-0.35-147.71-0.57c-1.6-0.04-3.08,1.31-3.24,2.95
					c-0.05,1.75-0.03,3.67-0.05,5.5c-0.02,3.69-0.03,7.35-0.05,10.99c-0.01,1.82-0.02,3.63-0.02,5.44c0.03,0.9-0.1,1.84,0.11,2.56
					c0.2,0.76,0.67,1.44,1.29,1.88c0.65,0.45,1.35,0.62,2.2,0.59l2.58,0.01c1.72,0.01,3.42,0.02,5.12,0.03
					c13.6,0.08,26.72,0.15,39.22,0.22c24.99,0.16,47.49,0.3,66.41,0.42c18.88,0.15,34.17,0.28,44.77,0.37
					c5.26,0.06,9.36,0.11,12.17,0.15c1.37,0.03,2.42,0.05,3.17,0.06C425.99,452.46,426.36,452.49,426.36,452.49
					s-0.37,0.03-1.08,0.04c-0.75,0.01-1.8,0.02-3.17,0.03c-2.82,0.01-6.91,0.02-12.17,0.03c-10.6-0.02-25.89-0.04-44.77-0.06
					c-18.91-0.06-41.42-0.13-66.41-0.22c-12.5-0.05-25.62-0.1-39.22-0.16c-1.7-0.01-3.41-0.02-5.12-0.02l-2.58-0.01
					c-0.87,0.05-1.93-0.17-2.71-0.75c-0.8-0.57-1.4-1.44-1.66-2.41c-0.26-1.03-0.11-1.92-0.14-2.82c0.01-1.8,0.01-3.62,0.02-5.43
					c0.01-3.64,0.03-7.3,0.04-10.99c0.02-1.87-0.01-3.64,0.05-5.6c0.2-2.11,2.1-3.85,4.16-3.8c57.67,0.33,109.88,0.63,147.71,0.85
					c9.45,0.07,18,0.14,25.51,0.19c0.93,0.05,1.86-0.1,2.82,0.2c0.92,0.3,1.71,0.96,2.19,1.78c0.51,0.81,0.62,1.84,0.57,2.68
					c-0.01,0.87-0.01,1.72-0.02,2.55c-0.03,3.33-0.05,6.37-0.08,9.11c-0.03,2.73-0.05,5.16-0.07,7.28
					c-0.01,1.05-0.02,2.02-0.03,2.91c0.02,0.88-0.03,1.74-0.37,2.41c-0.62,1.36-1.72,1.9-2.39,2.09
					C426.73,452.56,426.36,452.49,426.36,452.49z"/>
			</g>
		</g>
		<g>
			
				<rect x="260.52" y="350.22" transform="matrix(1 4.783717e-03 -4.783717e-03 1 1.6982 -1.4416)" style="fill:#9C9CEF;" width="83.37" height="8.1"/>
		</g>
		<g>
			<g>
				<g>
					<path style="fill:#ABA9ED;" d="M268.11,437.51c-0.01,2.22-1.65,4.02-3.66,4.01c-2.01-0.01-3.64-1.82-3.63-4.04
						c0.01-2.22,1.65-4.02,3.66-4.01C266.5,433.48,268.12,435.29,268.11,437.51z"/>
				</g>
				<g>
					<path style="fill:#ABA9ED;" d="M279.41,437.57c-0.01,2.22-1.65,4.02-3.66,4.01c-2.01-0.01-3.64-1.82-3.63-4.04
						c0.01-2.22,1.65-4.02,3.66-4.01C277.79,433.53,279.42,435.34,279.41,437.57z"/>
				</g>
				<g>
					<path style="fill:#ABA9ED;" d="M290.7,437.62c-0.01,2.22-1.65,4.02-3.66,4.01c-2.01-0.01-3.64-1.82-3.63-4.04
						c0.01-2.22,1.65-4.02,3.66-4.01C289.08,433.58,290.71,435.4,290.7,437.62z"/>
				</g>
				<g>
					<path style="fill:#ABA9ED;" d="M301.99,437.67c-0.01,2.22-1.65,4.02-3.66,4.01c-2.01-0.01-3.64-1.82-3.63-4.04
						c0.01-2.22,1.65-4.02,3.66-4.01C300.38,433.64,302,435.45,301.99,437.67z"/>
				</g>
				<g>
					<path style="fill:#ABA9ED;" d="M313.29,437.73c-0.01,2.22-1.65,4.02-3.66,4.01c-2.01-0.01-3.64-1.82-3.63-4.04
						c0.01-2.22,1.65-4.02,3.66-4.01C311.67,433.69,313.3,435.5,313.29,437.73z"/>
				</g>
				<g>
					<path style="fill:#ABA9ED;" d="M324.58,437.78c-0.01,2.22-1.65,4.02-3.66,4.01c-2.01-0.01-3.64-1.82-3.63-4.04
						c0.01-2.22,1.65-4.02,3.66-4.01C322.97,433.75,324.59,435.56,324.58,437.78z"/>
				</g>
				<g>
					<path style="fill:#ABA9ED;" d="M335.88,437.83c-0.01,2.22-1.65,4.02-3.66,4.01c-2.01-0.01-3.64-1.82-3.63-4.04
						c0.01-2.22,1.65-4.02,3.66-4.01C334.26,433.8,335.89,435.61,335.88,437.83z"/>
				</g>
				<g>
					<path style="fill:#ABA9ED;" d="M347.17,437.89c-0.01,2.22-1.65,4.02-3.66,4.01c-2.01-0.01-3.64-1.82-3.63-4.04
						c0.01-2.22,1.65-4.02,3.66-4.01C345.55,433.86,347.18,435.67,347.17,437.89z"/>
				</g>
				<g>
					<path style="fill:#ABA9ED;" d="M358.46,437.94c-0.01,2.22-1.65,4.02-3.66,4.01c-2.01-0.01-3.64-1.82-3.63-4.04
						c0.01-2.22,1.65-4.02,3.66-4.01C356.85,433.91,358.47,435.72,358.46,437.94z"/>
				</g>
			</g>
		</g>
		<g>
			<g>
				<path style="fill:#5143D9;" d="M342.42,172.98c2.38-1.04,4.08-3.58,4.09-6.58c0.02-3.93-2.86-7.13-6.42-7.15
					c-3.56-0.02-6.46,3.16-6.47,7.09c-0.01,3.03,1.7,5.61,4.11,6.65c-9.92,1.55-9.47,12.71-9.47,12.71l23.45,0.11
					C351.72,185.8,352.26,174.52,342.42,172.98z"/>
				<path style="opacity:0.1;" d="M342.42,172.98c2.38-1.04,4.08-3.58,4.09-6.58c0.02-3.93-2.86-7.13-6.42-7.15
					c-3.56-0.02-6.46,3.16-6.47,7.09c-0.01,3.03,1.7,5.61,4.11,6.65c-9.92,1.55-9.47,12.71-9.47,12.71l23.45,0.11
					C351.72,185.8,352.26,174.52,342.42,172.98z"/>
			</g>
			<g>
				
					<rect x="296.88" y="192.91" transform="matrix(1 4.779586e-03 -4.779586e-03 1 0.9506 -1.6166)" style="fill:#ABA9ED;" width="83.64" height="10.36"/>
				
					<rect x="296.88" y="192.91" transform="matrix(1 4.779586e-03 -4.779586e-03 1 0.9506 -1.6166)" style="opacity:0.2;fill:#FFFFFF;" width="83.64" height="10.36"/>
			</g>
		</g>
	</g>
</g>
<g>
	<g>
		<path style="fill:#1A2E35;" d="M592.93,636.52c0,0.14-130.99,0.25-292.54,0.25c-161.61,0-292.57-0.11-292.57-0.25
			c0-0.14,130.96-0.25,292.57-0.25C461.93,636.27,592.93,636.38,592.93,636.52z"/>
	</g>
</g>
<g>
	<g>
		<g>
			<path style="fill:#1A2E35;" d="M109.56,401.29c-0.86-2.82-3.55-4.92-6.4-5c0.74-2.15-0.69-4.65-2.71-5.55
				c-2.02-0.91-4.4-0.5-6.4,0.48c-1.41,0.69-2.72,1.66-4.24,2.01c-2,0.47-4.06-0.18-6.11-0.25c-4.17-0.14-8.33,2.36-10.27,6.19
				c-0.68,1.34-1.1,2.82-1.85,4.12c-0.6,1.04-1.4,1.95-1.99,2.99c-1.72,3.03-1.43,7.14,0.69,9.88l28.78-6.85
				c2.34,1.68,5.72,1.63,8.02-0.12C109.37,407.43,110.42,404.11,109.56,401.29z"/>
		</g>
		<g>
			<g>
				<polygon style="fill:#FFC19D;" points="175.8,510.93 148.08,508.09 146.47,523 177.78,521.87 				"/>
			</g>
			<g>
				<g>
					<g>
						<g>
							<g>
								<path style="fill:#FFC19D;" d="M196.85,519.67c-0.36,0.52-1,0.8-1.6,0.64c-0.12-0.03-0.24-0.08-0.37-0.14
									c-0.83-0.43-0.46-2.25-0.46-2.25l-4.06-1.39c0,0-5.97,2.73-8.27,4.82c-2.3,2.08-6.92-0.67-6.92-0.67l-0.3-9.48l8.77-5.93
									c0,0-0.54,0.35,0.2-0.91c0.73-1.26,3.07-0.35,3.07-0.35c0.48-0.6,2.09-0.58,2.09-0.58l6.61,1.91
									c1.36,0.39,2.48,1.4,3.04,2.75l2.13,5.13c0,0,0.99,3.61,0.63,4.35c-0.54,1.12-1.71,0.66-1.71,0.66s-0.67,2.15-1.24,2.14
									C197.89,520.34,196.85,519.67,196.85,519.67L196.85,519.67z"/>
							</g>
						</g>
					</g>
				</g>
				<g>
					<g>
						<g>
							<g>
								<g>
									<path style="fill:#FF9C6A;" d="M183.79,520.11c0.01,0.01,0.16-0.07,0.45-0.25c0.32-0.19,0.75-0.44,1.27-0.75
										c1.12-0.63,2.77-1.52,4.91-2.43l-0.1,0c1.21,0.42,2.57,0.9,4.05,1.42l-0.11-0.21c-0.06,0.35-0.1,0.7-0.08,1.07
										c0.02,0.36,0.07,0.76,0.31,1.12c0.13,0.17,0.34,0.3,0.51,0.35c0.18,0.08,0.38,0.13,0.58,0.13
										c0.41,0.01,0.81-0.15,1.13-0.42c0.08-0.07,0.15-0.14,0.22-0.23l0.05-0.06l0.02-0.03l0.01-0.02l0,0
										c0.06-0.01-0.49,0.1-0.26,0.05l0,0l0.01,0.01l0.12,0.08c0.16,0.1,0.33,0.2,0.51,0.29c0.18,0.09,0.36,0.17,0.55,0.24
										c0.1,0.03,0.2,0.07,0.3,0.09c0.1,0.02,0.22,0.04,0.4-0.01c0.26-0.14,0.38-0.33,0.5-0.5c0.11-0.18,0.21-0.37,0.3-0.56
										c0.18-0.38,0.32-0.77,0.45-1.18l-0.27,0.13c0.53,0.19,1.18,0.16,1.64-0.29c0.21-0.21,0.39-0.48,0.42-0.82
										c0.03-0.3,0.01-0.58-0.02-0.86c-0.13-1.11-0.39-2.19-0.68-3.29l0-0.01l-0.01-0.01c-0.36-0.87-0.75-1.8-1.14-2.74
										c-0.24-0.58-0.48-1.16-0.72-1.74c-0.24-0.56-0.44-1.17-0.82-1.7c-0.36-0.52-0.83-0.96-1.35-1.29
										c-0.52-0.34-1.13-0.5-1.66-0.65c-2.19-0.62-4.28-1.22-6.23-1.78l-0.03-0.01l-0.02,0c-0.4,0-0.78,0.04-1.16,0.12
										c-0.37,0.09-0.77,0.19-1.07,0.54l0.25-0.04c-0.67-0.42-1.49-0.56-2.18-0.23c-0.69,0.32-1.09,0.97-1.34,1.59l0.06-0.08
										c-2.52,1.69-4.57,3.07-6.04,4.06c-0.68,0.47-1.22,0.84-1.63,1.13c-0.37,0.26-0.56,0.41-0.55,0.42
										c0.01,0.01,0.22-0.1,0.6-0.34c0.42-0.26,0.98-0.61,1.68-1.05c1.49-0.96,3.57-2.3,6.12-3.93l0.04-0.03l0.02-0.06
										c0.23-0.55,0.61-1.13,1.18-1.38c0.56-0.27,1.28-0.14,1.83,0.22l0.14,0.09l0.11-0.13c0.18-0.21,0.53-0.33,0.87-0.4
										c0.34-0.07,0.72-0.1,1.08-0.1l-0.05-0.01c1.95,0.57,4.04,1.18,6.22,1.81c0.56,0.16,1.08,0.3,1.55,0.61
										c0.47,0.3,0.89,0.69,1.22,1.17c0.34,0.46,0.52,1.04,0.78,1.62c0.24,0.57,0.48,1.15,0.72,1.74
										c0.39,0.94,0.78,1.86,1.14,2.74l-0.01-0.03c0.28,1.08,0.54,2.16,0.67,3.22c0.03,0.26,0.05,0.53,0.02,0.76
										c-0.01,0.2-0.14,0.4-0.29,0.56c-0.3,0.31-0.8,0.35-1.2,0.21l-0.2-0.07l-0.07,0.2c-0.12,0.38-0.26,0.77-0.43,1.13
										c-0.15,0.34-0.37,0.75-0.58,0.86c-0.01,0-0.09,0.01-0.17-0.01c-0.08-0.01-0.17-0.04-0.25-0.07
										c-0.17-0.06-0.34-0.13-0.5-0.22c-0.16-0.08-0.33-0.17-0.48-0.27l-0.12-0.07l-0.01,0l0,0c0.23-0.05-0.32,0.06-0.26,0.05l0,0
										l-0.01,0.01l-0.02,0.03l-0.04,0.05c-0.05,0.06-0.11,0.13-0.17,0.18c-0.25,0.22-0.56,0.34-0.88,0.34
										c-0.16,0-0.31-0.04-0.45-0.1c-0.16-0.05-0.27-0.12-0.36-0.23c-0.33-0.49-0.27-1.27-0.18-1.88l0.02-0.16l-0.14-0.05
										c-1.48-0.5-2.86-0.95-4.07-1.36l-0.05-0.02l-0.05,0.02c-2.15,0.95-3.78,1.89-4.88,2.57c-0.55,0.34-0.96,0.62-1.24,0.82
										C183.92,519.98,183.78,520.09,183.79,520.11z"/>
								</g>
							</g>
						</g>
					</g>
				</g>
			</g>
			<g>
				<g>
					<g>
						<path style="fill:#FF9C6A;" d="M187.67,506.65c-0.02,0.05,0.73,0.5,2.06,1.02c1.33,0.53,3.25,1.09,5.49,1.33l-0.2-0.19
							c0.06,0.36,0.13,0.74,0.21,1.13c0.56,2.54,1.64,4.66,2.58,6.04c0.47,0.69,0.9,1.22,1.22,1.56c0.32,0.34,0.51,0.51,0.53,0.49
							c0.06-0.05-0.62-0.83-1.48-2.24c-0.86-1.4-1.86-3.49-2.41-5.96c-0.08-0.37-0.15-0.74-0.21-1.1l-0.03-0.18l-0.17-0.02
							c-2.19-0.22-4.1-0.72-5.43-1.16C188.49,506.94,187.7,506.59,187.67,506.65z"/>
					</g>
				</g>
			</g>
			<g>
				<g>
					<g>
						<path style="fill:#FF9C6A;" d="M193.44,511.76c-0.11,0,0.03,2,1.07,4.18c1.02,2.19,2.44,3.54,2.51,3.46
							c0.1-0.09-1.13-1.54-2.11-3.66C193.92,513.63,193.58,511.74,193.44,511.76z"/>
					</g>
				</g>
			</g>
			<g>
				<g>
					<g>
						<path style="fill:#FF9C6A;" d="M174.27,517.67c-0.01,0.01,0.06,0.07,0.19,0.16c0.13,0.1,0.34,0.23,0.62,0.37
							c0.56,0.29,1.44,0.64,2.6,0.75c1.15,0.11,2.61-0.05,4.03-0.81c1.41-0.74,2.78-2.08,3.55-3.91l-0.27,0.12
							c1.46,0.55,3.11,0.93,4.83,1.04c0.62,0.04,1.23,0.04,1.84,0.02c0.6-0.03,1.22-0.06,1.81-0.3c0.28-0.11,0.61-0.32,0.76-0.65
							c0.16-0.33,0.16-0.7,0.04-1.03c-0.12-0.32-0.36-0.59-0.66-0.73c-0.25-0.11-0.5-0.22-0.75-0.33c-1.97-0.85-3.77-1.52-5.31-2.03
							c-1.53-0.51-2.79-0.87-3.66-1.1c-0.87-0.23-1.36-0.32-1.37-0.29c-0.01,0.03,0.47,0.19,1.32,0.47
							c0.86,0.28,2.09,0.69,3.61,1.24c1.51,0.55,3.3,1.25,5.25,2.12c0.24,0.11,0.49,0.22,0.74,0.33c0.2,0.09,0.35,0.27,0.43,0.49
							c0.07,0.22,0.07,0.47-0.03,0.67c-0.09,0.2-0.29,0.33-0.54,0.44c-0.49,0.2-1.07,0.23-1.66,0.26c-0.59,0.03-1.19,0.02-1.79-0.02
							c-1.68-0.11-3.29-0.47-4.72-0.99l-0.19-0.07l-0.08,0.19c-0.71,1.73-1.99,3.02-3.33,3.75c-1.34,0.75-2.73,0.93-3.84,0.86
							c-1.12-0.07-1.99-0.37-2.56-0.61C174.58,517.82,174.29,517.64,174.27,517.67z"/>
					</g>
				</g>
			</g>
		</g>
		<g>
			<g>
				<g>
					<g>
						<g>
							<g>
								<g>
									<path style="fill:#FFC19D;" d="M85.87,474.04c-6.75-0.06-12.21-5.86-12.3-13.04l-0.52-43.24
										c-0.49-11.61,5.45-21.59,16.36-21.79l1.01,0.04c10.16,0.45,18.29,9.12,18.69,19.95c0.37,10.07,0.77,19.8,0.49,25.18
										c-0.56,11.14-11.2,12.24-11.2,12.24c-0.02,0-0.03,4.16-0.02,7.43C98.39,468.15,92.77,474.11,85.87,474.04L85.87,474.04z"/>
								</g>
							</g>
						</g>
					</g>
				</g>
				<g>
					<g>
						<g>
							<g>
								<g>
									<g>
										<path style="fill:#FF9C6A;" d="M98.41,453.44c0,0-6.61,0.12-13.46-4.89c0,0,2.95,8.52,13.43,7.98L98.41,453.44z"/>
									</g>
								</g>
							</g>
						</g>
					</g>
				</g>
				<g>
					<g>
						<g>
							<g>
								<g>
									<g>
										<g>
											<g>
												<g>
													<g>
														<g>
															<g>
																<path style="fill:#1A2E35;" d="M105.25,425.86c0,0.84-0.68,1.53-1.5,1.54c-0.82,0.01-1.49-0.66-1.48-1.5
																	c0-0.84,0.68-1.53,1.5-1.54C104.59,424.34,105.26,425.02,105.25,425.86z"/>
															</g>
														</g>
													</g>
												</g>
											</g>
										</g>
									</g>
								</g>
							</g>
						</g>
					</g>
				</g>
				<g>
					<g>
						<g>
							<g>
								<g>
									<g>
										<g>
											<g>
												<g>
													<g>
														<g>
															<g>
																<g>
																	<path style="fill:#1A2E35;" d="M106.7,420.78c-0.19,0.2-1.29-0.74-2.9-0.81c-1.61-0.09-2.82,0.74-2.99,0.52
																		c-0.08-0.1,0.12-0.46,0.65-0.84c0.52-0.37,1.4-0.72,2.4-0.67c1,0.05,1.83,0.48,2.3,0.9
																		C106.64,420.31,106.79,420.69,106.7,420.78z"/>
																</g>
															</g>
														</g>
													</g>
												</g>
											</g>
										</g>
									</g>
								</g>
							</g>
						</g>
					</g>
				</g>
				<g>
					<g>
						<g>
							<g>
								<g>
									<g>
										<g>
											<g>
												<g>
													<g>
														<g>
															<g>
																<path style="fill:#1A2E35;" d="M90.66,425.86c0,0.84-0.68,1.53-1.5,1.54c-0.82,0.01-1.49-0.66-1.48-1.5
																	c0-0.84,0.68-1.53,1.5-1.54C90,424.34,90.66,425.02,90.66,425.86z"/>
															</g>
														</g>
													</g>
												</g>
											</g>
										</g>
									</g>
								</g>
							</g>
						</g>
					</g>
				</g>
				<g>
					<g>
						<g>
							<g>
								<g>
									<g>
										<g>
											<g>
												<g>
													<g>
														<g>
															<g>
																<g>
																	<path style="fill:#1A2E35;" d="M90.92,420.48c-0.19,0.2-1.29-0.74-2.9-0.81c-1.61-0.09-2.82,0.74-2.99,0.52
																		c-0.08-0.1,0.12-0.46,0.65-0.84c0.52-0.37,1.4-0.72,2.4-0.67c1,0.05,1.83,0.48,2.3,0.9
																		C90.86,420.01,91.01,420.39,90.92,420.48z"/>
																</g>
															</g>
														</g>
													</g>
												</g>
											</g>
										</g>
									</g>
								</g>
							</g>
						</g>
					</g>
				</g>
				<g>
					<g>
						<g>
							<g>
								<g>
									<g>
										<g>
											<g>
												<g>
													<g>
														<g>
															<g>
																<path style="fill:#1A2E35;" d="M96.18,433.89c0-0.1,1-0.24,2.63-0.39c0.41-0.03,0.8-0.1,0.89-0.39
																	c0.11-0.31-0.04-0.79-0.22-1.31c-0.35-1.08-0.71-2.2-1.08-3.38c-1.5-4.82-2.57-8.77-2.39-8.83
																	c0.18-0.06,1.55,3.79,3.05,8.6c0.36,1.19,0.71,2.32,1.03,3.4c0.14,0.5,0.38,1.08,0.15,1.73
																	c-0.12,0.32-0.43,0.55-0.7,0.61c-0.27,0.07-0.5,0.07-0.7,0.07C97.19,434.03,96.18,433.99,96.18,433.89z"/>
															</g>
														</g>
													</g>
												</g>
											</g>
										</g>
									</g>
								</g>
							</g>
						</g>
					</g>
				</g>
				<g>
					<g>
						<g>
							<g>
								<g>
									<g>
										<g>
											<g>
												<path style="fill:#1A2E35;" d="M91.65,415.15c-0.24,0.43-1.78-0.1-3.68-0.23c-1.9-0.17-3.49,0.12-3.67-0.34
													c-0.08-0.22,0.26-0.6,0.94-0.92c0.68-0.32,1.71-0.56,2.84-0.47c1.14,0.09,2.12,0.48,2.75,0.91
													C91.47,414.51,91.75,414.94,91.65,415.15z"/>
											</g>
										</g>
									</g>
								</g>
							</g>
						</g>
					</g>
				</g>
				<g>
					<g>
						<g>
							<g>
								<g>
									<g>
										<g>
											<g>
												<path style="fill:#1A2E35;" d="M106.96,415.74c-0.34,0.38-1.64-0.06-3.22-0.12c-1.57-0.11-2.92,0.18-3.21-0.24
													c-0.13-0.2,0.09-0.59,0.68-0.94c0.58-0.35,1.55-0.62,2.63-0.56c1.08,0.06,2.01,0.44,2.55,0.85
													C106.94,415.15,107.12,415.56,106.96,415.74z"/>
											</g>
										</g>
									</g>
								</g>
							</g>
						</g>
					</g>
				</g>
				<g>
					<g>
						<g>
							<g>
								<path style="fill:#FFC19D;" d="M73.58,426.05c-0.18-0.09-7.1-2.58-7.17,5.05c-0.07,7.63,7.14,6.13,7.15,5.91
									C73.58,436.78,73.58,426.05,73.58,426.05z"/>
							</g>
						</g>
					</g>
				</g>
				<g>
					<g>
						<g>
							<g>
								<g>
									<path style="fill:#FF9C6A;" d="M71.4,434.09c-0.03-0.02-0.13,0.09-0.34,0.19c-0.21,0.1-0.56,0.16-0.93,0.01
										c-0.75-0.3-1.38-1.59-1.4-2.96c-0.01-0.69,0.13-1.35,0.37-1.9c0.22-0.56,0.57-0.94,0.95-1.01
										c0.38-0.09,0.65,0.16,0.73,0.37c0.09,0.21,0.05,0.37,0.09,0.38c0.02,0.02,0.15-0.13,0.1-0.44
										c-0.03-0.15-0.11-0.33-0.28-0.48c-0.17-0.15-0.42-0.23-0.69-0.2c-0.55,0.04-1.05,0.57-1.31,1.17
										c-0.29,0.6-0.46,1.34-0.45,2.12c0.03,1.54,0.76,2.98,1.79,3.31c0.5,0.15,0.92-0.01,1.14-0.19
										C71.39,434.27,71.43,434.1,71.4,434.09z"/>
								</g>
							</g>
						</g>
					</g>
				</g>
				<g>
					<g>
						<g>
							<g>
								<path style="fill:#1A2E35;" d="M78.71,407c0.3-1.98,1.74-3.59,3.58-4.23c1.55-0.54,3.25-0.54,4.84,0.06
									c4.03,1.52,10.92,3.8,12.72,2.34c2.59-2.1,3.21-3.46,3.21-3.46l1.42,1.6c1.16-0.68-2.32-4.68-5.17-6.06
									c-4.3-2.08-10.88-3.37-14.85-2.17c-4.78,1.44-8.75,3.97-11.15,8.6c-2.4,4.63-3.31,10.03-3.17,15.32
									c0.04,1.61-0.24,6.24,1.26,6.6c1.16,0.28,2.66,0.81,2.58,3.14c-0.03,0.85,0.2,1.71,0.74,2.33c1.31,1.49,2.91,0.09,3.65-1.31
									c1.58-2.99,1.75-6.55,1.89-9.98c0.1-2.43,0.19-4.92-0.45-7.26c0,0-1.06-3.01-1.15-4.69C78.65,407.56,78.67,407.28,78.71,407
									z"/>
							</g>
						</g>
					</g>
				</g>
			</g>
			<g>
				<g>
					<path style="fill:#1A2E35;" d="M96.46,438.02c0.04,0.12-0.29,0.4-0.95,0.55c-0.65,0.15-1.66,0.11-2.59-0.42
						c-0.94-0.53-1.51-1.37-1.75-2.02c-0.25-0.65-0.21-1.1-0.09-1.13c0.25-0.09,0.78,1.45,2.29,2.3
						C94.86,438.17,96.38,437.76,96.46,438.02z"/>
				</g>
			</g>
		</g>
		<g>
			<path style="fill:#375A64;" d="M103.9,539.78l-34.26-7.8l-21.99-56.51c0,0-29.42,6.76-34.28,23.78
				c-4.2,14.72-12.87,79.77,6.84,119.88c5.07,10.31,15.39,16.71,26.57,16.71h149.9c18.92,0,34.84-14.73,36.94-34.21
				c0.85-7.85,1.44-15.31,1.32-20.16l-24.07-19.13L103.9,539.78z"/>
		</g>
		<g style="opacity:0.3;">
			<g>
				<path d="M195.54,559.44c10.55,14.27,23.39,27.1,38.74,35.48l0.73-19.37l-28.35-20.9L195.54,559.44z"/>
			</g>
		</g>
		<g>
			<g>
				<path style="fill:#F5F5F5;" d="M82.37,464.48c0,1.03,7.79,4.35,11.31,2.9c5.36-2.22,4.7-6.57,4.7-6.57l2.97,3.25l29.84,47.08
					l22.18,15.16l-35.5,11.64l-37.21-44.27L82.37,464.48z"/>
			</g>
			<g>
				<path style="fill:#5143D9;" d="M72.97,448.68l-0.78,1.52l-3.54,6.84l-14.74,9.73l30.3,37.3l13.84,33.86l33.15,10.75
					c0,0-15.77-25.12-20.67-37.96c-4.9-12.84-5.4-12.24-9.87-21.64c-4.28-9-8.1-20.4-8.1-20.4L72.97,448.68z"/>
			</g>
			<g>
				<path style="fill:#5143D9;" d="M143.97,515.86l6.5,6.28l1.84,3.88l-24.17-11.65l-17.45-25.3c0,0-6.22-14.28-8.36-19.4
					c-2.25-5.38-3.93-8.43-3.93-8.43L98.38,457l8.82,8.23l7.35,2.27l12.28,20.1L143.97,515.86z"/>
			</g>
			<g>
				<path style="fill:#5143D9;" d="M136.52,492.2c0,0-2.93-6.49-5.33-11.87c-5.4-12.14-18.13-13.3-18.13-13.3l14.07,40.41
					l17.24,12.66c0,0,4.9,1.77,5.52,0c0,0,3.59-13.4,3.48-13.45c-0.11-0.05-12.27-3.82-12.27-3.82l-4.9-11.32"/>
			</g>
			<g>
				<g>
					<path style="fill:#1A2E35;" d="M162.44,479.59l-16.74,28.89l17.53-0.54l15.46-26.77c0.59-1.03-0.12-2.33-1.28-2.33h-13.7
						C163.19,478.84,162.71,479.12,162.44,479.59z"/>
				</g>
				<g>
					<path style="fill:#FFC19D;" d="M98.04,512.26l41.91-5.17l7.05-12.77l5.52-3.14c0.94-0.53,2.08-0.46,2.95,0.19l0.52,0.39
						l4.09-0.53c0.7-0.09,1.4,0.05,2.01,0.41l2.9,1.71c0.43,0.26,0.69,0.73,0.69,1.24l0,0c0,0.9-0.79,1.58-1.64,1.42l-2.82-0.54
						l-4.31,1.46c0,0,2.78,0.31,3.14,2.5c0.35,2.19-1.06,2.23-1.06,2.23s2.93,1.77,0.88,4.34c0,0,2.44,1.68-0.29,4.88
						c-1.85,2.17-15.2,9.22-15.2,9.22l-46.33,17.83V512.26z"/>
				</g>
				<g>
					<g>
						<path style="fill:#FF9C6A;" d="M159.75,506.04c0-0.02,0.31,0,0.68,0.39c0.35,0.38,0.69,1.19,0.45,2.14
							c-0.23,0.95-0.97,1.83-1.8,2.67c-0.83,0.86-1.83,1.72-2.94,2.52c-2.23,1.59-4.44,2.7-6.05,3.46
							c-1.61,0.75-2.62,1.16-2.65,1.11c-0.03-0.06,0.94-0.57,2.51-1.4c1.56-0.83,3.73-1.97,5.93-3.54c1.1-0.79,2.08-1.62,2.91-2.44
							c0.84-0.82,1.54-1.62,1.79-2.46c0.26-0.83,0-1.57-0.28-1.94C160.01,506.16,159.73,506.08,159.75,506.04z"/>
					</g>
				</g>
				<g>
					<g>
						<path style="fill:#FF9C6A;" d="M155.81,491.88c0.03,0.12-0.91,0.49-2.09,0.82c-1.19,0.33-2.18,0.5-2.21,0.38
							c-0.03-0.12,0.91-0.49,2.09-0.82C154.79,491.93,155.78,491.75,155.81,491.88z"/>
					</g>
				</g>
				<g>
					<g>
						<path style="fill:#FF9C6A;" d="M161.21,495.47c0.04,0.12-1.26,0.68-2.91,1.24c-1.65,0.57-3.01,0.93-3.05,0.81
							c-0.04-0.12,1.26-0.67,2.91-1.24C159.81,495.72,161.17,495.36,161.21,495.47z"/>
					</g>
				</g>
				<g>
					<g>
						<path style="fill:#FF9C6A;" d="M156.19,501.27c-0.12-0.01-0.18-0.39-0.33-0.82c-0.14-0.43-0.31-0.76-0.22-0.85
							c0.08-0.09,0.47,0.17,0.64,0.7C156.45,500.83,156.3,501.29,156.19,501.27z"/>
					</g>
				</g>
				<g>
					<g>
						<path style="fill:#FF9C6A;" d="M157.62,506.28c-0.12-0.03-0.08-0.65-0.25-1.36c-0.16-0.72-0.48-1.24-0.39-1.33
							c0.08-0.09,0.62,0.38,0.81,1.22C158,505.64,157.73,506.32,157.62,506.28z"/>
					</g>
				</g>
			</g>
			<g>
				<path style="fill:#5143D9;" d="M55.08,465.99c-1.39,0.88-13.24,9.25-11.51,22.98c1.73,13.73,27.96,44.78,33.43,45.37l21.04,3.58
					v-25.67l-10.09-0.6L74.7,484.79L55.08,465.99z"/>
			</g>
			<g>
				<g>
					<path style="fill:#1A2E35;" d="M98.04,511.01c0,0.02-0.26,0.05-0.75,0.08c-0.56,0.02-1.27,0.05-2.12,0.08
						c-1.91,0.04-4.49,0.1-7.54,0.17l-0.11,0l-0.07-0.09c-1.58-2.2-3.4-4.73-5.33-7.42c-3.18-4.45-6.03-8.49-8.08-11.44
						c-0.98-1.43-1.79-2.6-2.4-3.5c-0.56-0.83-0.86-1.3-0.83-1.32c0.03-0.02,0.37,0.41,0.98,1.21c0.65,0.87,1.5,2.02,2.53,3.41
						c2.12,2.89,5.01,6.9,8.19,11.35c1.91,2.7,3.72,5.24,5.29,7.45l-0.17-0.09c3.05,0,5.63,0,7.54,0.01
						c0.86,0.02,1.56,0.03,2.13,0.04C97.78,510.97,98.04,510.99,98.04,511.01z"/>
				</g>
			</g>
			<g>
				<g>
					<path style="fill:#1A2E35;" d="M92.92,472.07c-0.02,0.01-0.16-0.26-0.41-0.78c-0.27-0.59-0.62-1.34-1.04-2.25l0.22,0.02
						c-0.63,0.94-1.33,2.15-2.03,3.62c-0.7,1.46-1.49,3.16-2.64,4.81l-0.17,0.24l-0.18-0.23c-1.36-1.74-2.92-3.59-4.6-5.49
						c-3.67-4.14-7.18-7.71-9.69-10.33c-1.21-1.27-2.2-2.32-2.96-3.12c-0.69-0.75-1.06-1.17-1.04-1.19
						c0.02-0.02,0.44,0.35,1.17,1.06c0.78,0.77,1.81,1.78,3.06,3.01c2.57,2.56,6.11,6.1,9.8,10.25c1.68,1.9,3.24,3.77,4.59,5.53
						l-0.35,0.01c1.14-1.61,1.94-3.26,2.67-4.72c0.73-1.46,1.48-2.68,2.15-3.61l0.14-0.19l0.09,0.21c0.38,0.94,0.69,1.7,0.93,2.3
						C92.85,471.77,92.95,472.06,92.92,472.07z"/>
				</g>
			</g>
			<g>
				<g>
					<path style="fill:#1A2E35;" d="M107.28,465.51c0.04-0.02,0.3,0.44,0.64,1.29c0.34,0.85,0.7,2.12,1.1,3.61l0.28,1.06l-0.65-0.87
						c-0.8-1.08-1.89-2.22-3.09-3.38c-0.97-0.93-1.93-1.79-2.8-2.57l0.36-0.14c-0.22,1.72-0.08,3.24-0.13,4.31
						c-0.02,1.07-0.16,1.69-0.2,1.68c-0.05-0.01-0.01-0.62-0.06-1.68c-0.03-1.06-0.23-2.56-0.04-4.37l0.04-0.41l0.31,0.27
						c0.88,0.76,1.86,1.61,2.84,2.55c1.22,1.17,2.31,2.35,3.11,3.48l-0.37,0.19c-0.37-1.52-0.66-2.77-0.93-3.64
						C107.42,466.02,107.23,465.53,107.28,465.51z"/>
				</g>
			</g>
			<g>
				<g>
					<path style="fill:#1A2E35;" d="M137.75,507.36c-0.02,0.02-0.38-0.32-1-0.96c-0.67-0.71-1.55-1.63-2.59-2.73
						c-1.08-1.18-2.38-2.5-3.79-4.13c-0.65-0.86-1.22-1.8-1.9-2.72c-0.7-0.95-1.23-2.04-1.75-3.16c-1.01-2.26-1.76-4.48-2.45-6.5
						c-0.68-2.02-1.28-3.84-1.83-5.35c-0.56-1.51-1.05-2.71-1.44-3.51c-0.39-0.8-0.64-1.23-0.6-1.26c0.01-0.01,0.09,0.09,0.22,0.28
						c0.12,0.2,0.34,0.48,0.54,0.88c0.45,0.78,0.99,1.97,1.59,3.47c0.6,1.5,1.23,3.31,1.93,5.32c0.71,2.01,1.47,4.22,2.46,6.45
						c0.51,1.1,1.03,2.17,1.7,3.08c0.68,0.93,1.25,1.9,1.87,2.73c1.32,1.56,2.65,2.98,3.69,4.17c1,1.15,1.84,2.1,2.49,2.84
						C137.46,506.95,137.77,507.34,137.75,507.36z"/>
				</g>
			</g>
		</g>
		<g>
			<g>
				<path style="fill:#1A2E35;" d="M149.92,521.86l79.55-2.32c1.26-0.03,2.52,0.19,3.67,0.71c2.89,1.28,8.1,4.55,11.66,12.4
					c5.18,11.39,29.29,59.37,29.29,59.37l-24.39,12.95l-29.92-57.47l-92.2-8.11l1.07-7.63L149.92,521.86z"/>
			</g>
			<g>
				<g>
					<g>
						<g>
							<g>
								<g>
									<g>
										<g>
											<path style="fill:#E1E1E1;" d="M242.46,594.87l12.71,22.59l0.85,5.71c0.52,3.49,3.67,5.89,7.05,5.36l38.69-6.15
												c1.94-0.31,3.2-2.44,2.39-4.28c-0.31-0.7-0.87-1.3-1.84-1.55c-3.24-0.85-28.2-10.35-28.2-10.35l-10.41-21.6
												L242.46,594.87z"/>
										</g>
									</g>
								</g>
							</g>
						</g>
					</g>
					<g>
						<g>
							<path style="fill:#1A2E35;" d="M253.11,600.09c-0.1,0.07-1.38-1.55-2.86-3.63c-1.48-2.08-2.6-3.83-2.5-3.9
								c0.1-0.07,1.38,1.55,2.86,3.63C252.09,598.27,253.21,600.02,253.11,600.09z"/>
						</g>
					</g>
					<g>
						<g>
							<path style="fill:#1A2E35;" d="M260.71,596.93c-0.09,0.07-1.4-1.55-2.67-3.81c-1.27-2.25-1.99-4.24-1.88-4.28
								c0.12-0.05,1.01,1.83,2.26,4.05C259.67,595.12,260.81,596.85,260.71,596.93z"/>
						</g>
					</g>
					<g>
						<g>
							<g>
								<g>
									<g>
										<path style="fill:#1A2E35;" d="M266.01,627.8c-0.08,0.02-0.29-0.78-0.87-1.96c-0.57-1.17-1.58-2.7-3.1-3.93
											c-1.52-1.24-3.19-1.89-4.43-2.19c-1.24-0.3-2.04-0.32-2.04-0.41c0-0.06,0.81-0.18,2.11,0.04
											c1.29,0.21,3.07,0.84,4.67,2.14c1.6,1.3,2.61,2.94,3.12,4.19C265.99,626.95,266.07,627.79,266.01,627.8z"/>
									</g>
								</g>
							</g>
						</g>
					</g>
					<g>
						<g>
							<g>
								<g>
									<g>
										<path style="fill:#1A2E35;" d="M292.08,623.92c-0.05,0.02-0.37-0.51-0.62-1.5c-0.25-0.97-0.32-2.45,0.19-3.93
											c0.5-1.48,1.36-2.6,2.01-3.33c0.67-0.73,1.16-1.09,1.2-1.04c0.05,0.06-0.34,0.52-0.92,1.29c-0.57,0.77-1.34,1.88-1.8,3.26
											c-0.47,1.38-0.46,2.74-0.32,3.69C291.97,623.3,292.16,623.88,292.08,623.92z"/>
									</g>
								</g>
							</g>
						</g>
					</g>
				</g>
			</g>
			<g>
				<path style="fill:#1A2E35;" d="M125.55,533.09c0,0,82.1-8.52,86.09-8.18c7.36,0.63,20.94,12.65,45.03,29.41
					c19.99,13.9,34.57,30.09,34.57,30.09l-7.7,18.21c0,0-53.99-20.38-62.46-27.71c-7.04-6.09-19.87-14.76-19.87-14.76l-31.67,0.33
					l-23.53,2.15c-11.8,1.08-23.31-4.17-30.51-13.91l-9.14-12.36L125.55,533.09z"/>
			</g>
			<g>
				<g>
					<path style="fill:#375A64;" d="M200.83,559.89c0,0,0.13,0.08,0.38,0.26c0.26,0.18,0.63,0.45,1.11,0.79
						c0.98,0.71,2.41,1.75,4.26,3.1c3.7,2.74,9.14,6.66,15.8,11.89c0.42,0.32,0.82,0.7,1.27,0.98c0.45,0.29,0.9,0.58,1.36,0.88
						c0.97,0.51,1.95,1.06,2.99,1.56c1.04,0.5,2.1,1.01,3.18,1.53c1.09,0.5,2.2,1.01,3.34,1.53c4.56,2.04,9.49,4.18,14.75,6.39
						c10.52,4.43,22.33,9.24,35.08,14.32l-0.28,0.13c2.23-5.84,4.57-12,6.98-18.31l0.05,0.26c-3.05-3.22-6.29-6.64-9.58-10.12
						l0.01,0.01c-2.25-2.02-4.66-4.17-7.13-6.29c-15.75-13.58-31.63-25.19-46.01-34.96l-0.01-0.01l-0.01-0.01
						c-2.19-1.96-4.56-3.64-6.97-5.08c-2.42-1.43-4.91-2.59-7.45-3.35c-0.64-0.18-1.28-0.32-1.91-0.48c-0.64-0.1-1.28-0.2-1.92-0.3
						c-0.64-0.04-1.28-0.07-1.91-0.1c-0.64,0-1.28,0-1.91,0c-2.53,0-4.98-0.01-7.36-0.01c-9.53-0.02-17.88-0.04-24.79-0.05
						c-6.9-0.03-12.35-0.05-16.09-0.06c-1.85-0.02-3.28-0.03-4.26-0.03c-0.47-0.01-0.84-0.01-1.1-0.02
						c-0.25-0.01-0.37-0.02-0.37-0.02s0.13-0.01,0.37-0.02c0.26,0,0.62-0.01,1.1-0.02c0.98-0.01,2.41-0.02,4.26-0.03
						c3.74-0.01,9.19-0.04,16.09-0.06c6.91-0.01,15.26-0.03,24.79-0.05c2.38,0,4.84-0.01,7.36-0.01c0.63,0,1.27,0,1.91,0
						c0.65,0.03,1.3,0.07,1.95,0.1c0.65,0.1,1.3,0.2,1.95,0.31c0.64,0.16,1.3,0.31,1.94,0.49c2.58,0.76,5.1,1.94,7.54,3.37
						c2.44,1.44,4.81,3.13,7.05,5.12l-0.03-0.02c14.41,9.75,30.31,21.36,46.08,34.95c2.47,2.12,4.89,4.27,7.14,6.29l0.01,0.01
						l0.01,0.01c3.29,3.48,6.53,6.9,9.58,10.12l0.11,0.11l-0.06,0.15c-2.41,6.31-4.76,12.47-7,18.31l-0.08,0.21l-0.2-0.08
						c-12.74-5.09-24.55-9.93-35.06-14.38c-5.26-2.23-10.19-4.38-14.74-6.44c-1.13-0.52-2.25-1.04-3.34-1.54
						c-1.08-0.53-2.14-1.04-3.18-1.54c-1.03-0.51-2.02-1.07-3-1.58c-0.47-0.31-0.93-0.61-1.39-0.91c-0.46-0.3-0.85-0.67-1.26-0.99
						c-6.63-5.25-12.04-9.22-15.71-11.99c-1.83-1.37-3.25-2.43-4.22-3.16c-0.47-0.36-0.83-0.63-1.08-0.82
						C200.95,560,200.83,559.89,200.83,559.89z"/>
				</g>
			</g>
			<g>
				<g>
					<g>
						<g>
							<g>
								<g>
									<g>
										<g>
											<g>
												<path style="fill:#E1E1E1;" d="M266.1,597.99l22.75,9.27l3.79,4.24c2.32,2.6,6.23,2.75,8.73,0.35l28.73-27.53
													c1.44-1.38,1.34-3.88-0.34-4.94c-0.64-0.4-1.42-0.57-2.37-0.22c-3.14,1.17-28.96,7.78-28.96,7.78l-17.29-14.29
													L266.1,597.99z"/>
											</g>
											<g>
												<g>
													<path style="fill:#1A2E35;" d="M266.1,597.99c0,0,0.08-0.15,0.24-0.44c0.18-0.31,0.43-0.75,0.76-1.31
														c0.69-1.18,1.68-2.88,2.96-5.06c2.6-4.43,6.35-10.79,10.94-18.59l0.1-0.17l0.15,0.12c5.08,4.18,10.94,9.01,17.32,14.26
														l-0.17-0.04c4.9-1.28,10.05-2.62,15.4-4.02c2.67-0.72,5.38-1.45,8.14-2.19c1.38-0.38,2.76-0.76,4.15-1.18
														c0.35-0.1,0.69-0.21,1.03-0.33c0.33-0.11,0.72-0.25,1.11-0.27c0.79-0.06,1.59,0.27,2.16,0.83
														c1.18,1.13,1.23,3.12,0.31,4.39c-0.22,0.33-0.52,0.59-0.77,0.83l-0.78,0.75c-0.52,0.5-1.04,1-1.56,1.49
														c-2.07,1.99-4.12,3.94-6.12,5.86c-4.02,3.84-7.89,7.55-11.58,11.08c-1.85,1.76-3.64,3.48-5.39,5.15
														c-0.87,0.83-1.74,1.66-2.58,2.47c-0.41,0.4-0.87,0.82-1.36,1.13c-0.5,0.3-1.03,0.57-1.59,0.72
														c-2.22,0.67-4.64-0.02-6.15-1.58c-1.44-1.57-2.76-3.09-4.05-4.53l0.06,0.04c-7.03-2.9-12.71-5.25-16.66-6.89
														c-1.94-0.81-3.45-1.44-4.49-1.87c-0.5-0.21-0.88-0.37-1.16-0.49C266.22,598.05,266.1,597.99,266.1,597.99
														s0.15,0.05,0.42,0.16c0.29,0.11,0.68,0.27,1.2,0.47c1.06,0.42,2.59,1.03,4.56,1.81c3.94,1.58,9.62,3.86,16.63,6.68
														l0.03,0.01l0.02,0.03c1.29,1.43,2.64,2.97,4.06,4.49c1.43,1.47,3.73,2.11,5.82,1.47c0.53-0.14,1.02-0.4,1.49-0.68
														c0.47-0.31,0.88-0.68,1.3-1.09c0.85-0.81,1.7-1.64,2.58-2.48c1.74-1.68,3.54-3.4,5.38-5.17
														c3.68-3.54,7.55-7.25,11.56-11.1c2.01-1.92,4.05-3.88,6.12-5.87c0.52-0.5,1.04-1,1.56-1.5c0.5-0.51,1.11-0.99,1.5-1.52
														c0.8-1.1,0.75-2.84-0.25-3.79c-0.49-0.48-1.16-0.76-1.83-0.71c-0.34,0.02-0.64,0.13-1,0.25
														c-0.35,0.12-0.7,0.23-1.05,0.33c-1.39,0.42-2.78,0.8-4.16,1.18c-2.76,0.74-5.48,1.47-8.15,2.18
														c-5.35,1.39-10.5,2.72-15.41,3.99l-0.1,0.03l-0.08-0.06c-6.36-5.27-12.2-10.11-17.27-14.32l0.24-0.04
														c-4.63,7.72-8.41,14.02-11.04,18.4c-1.32,2.18-2.34,3.88-3.05,5.06c-0.35,0.57-0.62,1.01-0.81,1.32
														C266.21,597.83,266.1,597.99,266.1,597.99z"/>
												</g>
											</g>
										</g>
									</g>
								</g>
							</g>
						</g>
					</g>
					<g>
						<g>
							<g>
								<g>
									<g>
										<path style="fill:#1A2E35;" d="M303.42,609.55c-0.06,0.07-0.66-0.48-1.78-1.12c-1.11-0.64-2.77-1.32-4.7-1.46
											c-1.93-0.14-3.67,0.28-4.85,0.75c-1.19,0.47-1.87,0.92-1.91,0.85c-0.03-0.05,0.58-0.62,1.77-1.19
											c1.18-0.58,3-1.09,5.03-0.94c2.03,0.15,3.75,0.92,4.85,1.67C302.93,608.85,303.46,609.5,303.42,609.55z"/>
									</g>
								</g>
							</g>
						</g>
					</g>
					<g>
						<g>
							<g>
								<g>
									<g>
										<path style="fill:#1A2E35;" d="M322.92,591.21c-0.03,0.05-0.58-0.21-1.32-0.88c-0.73-0.67-1.59-1.84-1.97-3.37
											c-0.39-1.52-0.28-2.95-0.13-3.93c0.16-0.99,0.37-1.57,0.43-1.56c0.08,0.02,0,0.63-0.07,1.6
											c-0.05,0.97-0.09,2.33,0.27,3.75c0.36,1.42,1.1,2.53,1.73,3.24C322.49,590.77,322.97,591.14,322.92,591.21z"/>
									</g>
								</g>
							</g>
						</g>
					</g>
				</g>
			</g>
		</g>
		<g>
			<path style="fill:#375A64;" d="M186.87,559.9c-1.76-8.65-5.36-17.51-12.49-22.38c-5.41-3.7-12.1-4.61-18.53-5.43
				c-44.84-5.71-89.68-11.42-134.52-17.13c-1.2,21.96,7.87,49.28,17.12,69.07c1.44,3.07,3.1,6.21,5.85,8.09
				c3.35,2.29,7.65,2.27,11.67,2.16c45.25-1.19,90.52-3.19,135.52-8.32C188.96,577.53,188.63,568.56,186.87,559.9z"/>
		</g>
		<g>
			<g>
				<path style="fill:#1A2E35;" d="M70.81,521.26c0,0.03-0.57,0-1.58-0.11c-1.09-0.12-2.54-0.28-4.3-0.48
					c-3.63-0.43-8.63-1.07-14.15-1.86c-5.52-0.79-10.51-1.58-14.1-2.23c-1.8-0.33-3.25-0.61-4.25-0.83c-1-0.22-1.55-0.36-1.54-0.39
					c0.01-0.03,0.57,0.04,1.58,0.2c1.09,0.17,2.53,0.4,4.27,0.68c3.61,0.56,8.6,1.3,14.12,2.09c5.48,0.78,10.44,1.48,14.13,2.01
					c1.75,0.26,3.19,0.47,4.28,0.64C70.26,521.13,70.82,521.23,70.81,521.26z"/>
			</g>
		</g>
		<g>
			<g>
				<path style="fill:#1A2E35;" d="M71.51,635.84c-0.01,0-0.05-0.09-0.14-0.27c-0.09-0.21-0.21-0.47-0.37-0.8
					c-0.33-0.74-0.79-1.79-1.37-3.12c-0.3-0.68-0.62-1.43-0.98-2.26c-0.34-0.83-0.67-1.75-1.05-2.74c-0.73-1.97-1.64-4.19-2.41-6.73
					c-0.41-1.26-0.84-2.58-1.28-3.96c-0.44-1.38-0.8-2.84-1.22-4.35c-0.88-2.99-1.57-6.26-2.35-9.69
					c-1.39-6.89-2.53-14.54-3.1-22.64c-0.51-8.11-0.4-15.86,0.06-22.88c0.31-3.5,0.56-6.84,1.04-9.93c0.22-1.55,0.38-3.05,0.63-4.48
					c0.26-1.43,0.51-2.8,0.74-4.1c0.43-2.62,1.03-4.95,1.49-7.01c0.24-1.03,0.45-1.99,0.67-2.86c0.24-0.87,0.47-1.66,0.67-2.38
					c0.4-1.4,0.72-2.5,0.94-3.28c0.11-0.35,0.19-0.63,0.26-0.85c0.06-0.19,0.1-0.29,0.1-0.28c0.01,0-0.01,0.1-0.06,0.3
					c-0.05,0.22-0.12,0.5-0.21,0.86c-0.2,0.79-0.49,1.89-0.86,3.3c-0.19,0.72-0.4,1.51-0.63,2.38c-0.21,0.88-0.41,1.84-0.63,2.86
					c-0.43,2.06-1.02,4.39-1.42,7.01c-0.23,1.31-0.46,2.67-0.71,4.1c-0.24,1.43-0.39,2.93-0.6,4.47c-0.46,3.09-0.69,6.41-0.99,9.91
					c-0.43,7-0.53,14.73-0.02,22.81c0.57,8.08,1.7,15.71,3.06,22.58c0.76,3.42,1.43,6.68,2.3,9.67c0.42,1.5,0.76,2.96,1.19,4.34
					c0.43,1.38,0.85,2.7,1.25,3.96c0.75,2.54,1.64,4.76,2.34,6.74c0.36,0.98,0.68,1.91,1.01,2.75c0.34,0.83,0.66,1.59,0.94,2.27
					c0.55,1.34,0.98,2.4,1.29,3.15c0.13,0.34,0.24,0.61,0.32,0.82C71.48,635.74,71.52,635.84,71.51,635.84z"/>
			</g>
		</g>
		<g>
			<g>
				<path style="fill:#1A2E35;" d="M70.08,591.59c-0.01,0.14-2.38,0.13-5.29-0.01c-2.92-0.14-5.28-0.36-5.27-0.5s2.38-0.13,5.3,0.01
					C67.73,591.23,70.09,591.46,70.08,591.59z"/>
			</g>
		</g>
		<g>
			<g>
				<path style="fill:#1A2E35;" d="M68.86,597.95c-0.02,0.12-2.54-0.25-5.43-1.47c-2.9-1.21-4.96-2.76-4.89-2.86
					c0.08-0.13,2.22,1.22,5.07,2.4C66.44,597.23,68.89,597.81,68.86,597.95z"/>
			</g>
		</g>
		<g>
			<g>
				<path style="fill:#1A2E35;" d="M57.08,554.22c0.06,0.11-1.45,0.91-3.5,1.1c-2.05,0.21-3.68-0.27-3.64-0.39
					c0.02-0.15,1.63,0.11,3.6-0.1C55.5,554.65,57.03,554.08,57.08,554.22z"/>
			</g>
		</g>
		<g>
			<g>
				<path style="fill:#1A2E35;" d="M59.76,552.12c0.03,0.12-1.81,0.41-3.86-0.5c-2.06-0.89-3.14-2.46-3.03-2.52
					c0.1-0.11,1.28,1.24,3.22,2.07C58.01,552.03,59.76,551.97,59.76,552.12z"/>
			</g>
		</g>
		<g>
			<path style="fill:#1A2E35;" d="M107.13,402.48c-0.59-1.84-2.23-3.18-4.03-3.71c-1.8-0.53-3.74-0.33-5.53,0.22l-17.48,4.14
				c2.5,1.72,7.73,3.39,10.72,3.72c4.36,0.48,7.43,0.52,10.03-1.03c0.53,1.86,2.96,2.68,4.59,1.73
				C107.07,406.59,107.72,404.31,107.13,402.48z"/>
		</g>
		<g>
			<g>
				<path style="fill:#1A2E35;" d="M281.72,592.34c-0.03,0.12-2.41-0.47-5.22-1.57c-2.82-1.09-4.98-2.28-4.93-2.38
					c0.05-0.12,2.28,0.87,5.08,1.96C279.45,591.44,281.76,592.21,281.72,592.34z"/>
			</g>
		</g>
		<g>
			<g>
				<path style="fill:#1A2E35;" d="M285.58,584.6c-0.06,0.11-2.02-0.97-4.48-2.19c-2.46-1.23-4.5-2.14-4.45-2.26
					c0.04-0.11,2.16,0.61,4.64,1.85C283.76,583.23,285.64,584.5,285.58,584.6z"/>
			</g>
		</g>
		<g>
			<g>
				<g>
					<g>
						<path style="fill:#E1E1E1;" d="M146.37,529.79l35.24,0.45l42.54-8.73c1.38-0.28,2.43-1.43,2.64-2.86l5.78-39.67
							c0.29-1.96-1.35-3.64-3.24-3.32l-43.49,7.33c-1.24,0.21-2.19,1.24-2.35,2.52l-4.85,40.34l-32.22-0.16
							c-1.1-0.01-1.99,0.92-1.99,2.05l0,0C144.43,528.85,145.29,529.76,146.37,529.79z"/>
					</g>
					<g>
						<g>
							<path style="fill:#1A2E35;" d="M146.37,529.79c0,0-0.24,0.04-0.67-0.11c-0.41-0.15-1.07-0.59-1.27-1.51
								c-0.09-0.45-0.05-1,0.24-1.5c0.28-0.49,0.8-0.92,1.46-1.02c1.29-0.05,2.76-0.01,4.42-0.02c6.65,0.02,16.25,0.04,28.1,0.07
								l-0.16,0.14c1.39-11.61,3.03-25.37,4.85-40.6c0.2-1.01,0.92-1.9,1.86-2.27c0.48-0.2,0.96-0.22,1.42-0.31l1.4-0.24
								c1.87-0.32,3.76-0.64,5.68-0.96c3.82-0.65,7.73-1.31,11.7-1.98c3.97-0.67,8.01-1.35,12.11-2.04
								c2.05-0.35,4.11-0.69,6.19-1.04c1.04-0.18,2.08-0.35,3.13-0.53l1.57-0.26c0.52-0.07,1.04-0.23,1.64-0.18
								c1.21,0.09,2.3,1,2.65,2.2c0.19,0.58,0.15,1.26,0.05,1.8l-0.25,1.7c-0.33,2.26-0.66,4.5-0.98,6.73
								c-0.65,4.45-1.29,8.84-1.92,13.14c-0.63,4.31-1.25,8.53-1.85,12.67c-0.15,1.03-0.3,2.06-0.45,3.08
								c-0.07,0.51-0.15,1.02-0.22,1.53c-0.06,0.49-0.16,1.06-0.41,1.54c-0.47,0.97-1.38,1.69-2.39,1.91
								c-0.96,0.2-1.91,0.39-2.85,0.59c-15.09,3.08-28.59,5.83-39.77,8.11l-0.02,0l-0.02,0c-10.94-0.17-19.74-0.3-25.83-0.4
								c-3.03-0.06-5.37-0.1-6.98-0.13c-0.79-0.02-1.39-0.03-1.81-0.04C146.58,529.81,146.37,529.79,146.37,529.79
								s0.21-0.01,0.62-0.01c0.42,0,1.02,0,1.81,0c1.61,0.01,3.96,0.03,6.98,0.05c6.09,0.06,14.89,0.15,25.83,0.26l-0.03,0
								c11.17-2.31,24.66-5.09,39.75-8.21c0.94-0.19,1.89-0.39,2.84-0.59c0.9-0.2,1.7-0.83,2.11-1.69c0.22-0.43,0.3-0.89,0.37-1.41
								c0.07-0.51,0.15-1.02,0.22-1.53c0.15-1.02,0.3-2.05,0.45-3.08c0.6-4.13,1.21-8.36,1.84-12.67c0.63-4.31,1.26-8.69,1.91-13.15
								c0.32-2.23,0.65-4.47,0.98-6.73l0.25-1.7c0.1-0.58,0.12-1.08-0.03-1.6c-0.3-1.02-1.24-1.8-2.27-1.88
								c-0.48-0.04-1,0.1-1.53,0.18l-1.57,0.26c-1.05,0.18-2.09,0.35-3.13,0.53c-2.08,0.35-4.14,0.7-6.19,1.04
								c-4.1,0.69-8.14,1.37-12.11,2.04c-3.97,0.67-7.88,1.32-11.7,1.97c-1.91,0.32-3.81,0.64-5.68,0.95l-1.4,0.23
								c-0.47,0.09-0.94,0.12-1.34,0.29c-0.81,0.32-1.44,1.09-1.61,1.97c-1.85,15.22-3.52,28.96-4.93,40.56l-0.02,0.14l-0.14,0
								c-11.86-0.09-21.45-0.16-28.1-0.21c-1.65,0-3.14-0.05-4.4-0.02c-0.62,0.08-1.12,0.48-1.38,0.94
								c-0.27,0.47-0.32,0.99-0.24,1.42c0.18,0.89,0.8,1.33,1.2,1.49C146.13,529.8,146.37,529.77,146.37,529.79z"/>
						</g>
					</g>
				</g>
				<g>
					<g>
						<path style="fill:#1A2E35;" d="M187.25,484.24c0.12,0.02-1.05,10.55-2.61,23.53c-1.56,12.98-2.92,23.49-3.04,23.47
							c-0.12-0.02,1.05-10.55,2.61-23.53C185.77,494.73,187.13,484.22,187.25,484.24z"/>
					</g>
				</g>
			</g>
			<g>
				<path style="fill:#FFFFFF;" d="M206.16,500.62c-0.89,1.91-0.4,4.06,1.09,4.8c1.48,0.74,3.41-0.22,4.29-2.13
					c0.89-1.91,0.4-4.06-1.09-4.8C208.97,497.76,207.05,498.71,206.16,500.62z"/>
			</g>
		</g>
	</g>
</g>
<g>
	<g>
		<g>
			<path style="fill:#1A2E35;" d="M593.75,498.65c0.01,0-0.02,0.11-0.08,0.31c-0.07,0.22-0.16,0.52-0.28,0.9
				c-0.26,0.79-0.63,1.95-1.14,3.44c-1.01,2.98-2.53,7.28-4.54,12.54c-4.04,10.49-10.03,24.91-18.51,39.78
				c-2.03,3.76-3.89,7.5-5.3,11.29c-1.42,3.78-2.32,7.6-2.83,11.28c-1,7.39-0.6,14.16-0.03,19.76c0.59,5.61,1.37,10.12,1.87,13.24
				c0.26,1.54,0.46,2.74,0.6,3.59c0.06,0.39,0.11,0.7,0.15,0.93c0.03,0.21,0.04,0.32,0.04,0.32c-0.01,0-0.03-0.1-0.08-0.31
				c-0.05-0.23-0.11-0.54-0.19-0.93c-0.16-0.84-0.39-2.04-0.68-3.57c-0.55-3.11-1.38-7.61-2.01-13.23
				c-0.6-5.61-1.04-12.4-0.05-19.85c0.5-3.71,1.4-7.57,2.83-11.38c1.41-3.82,3.28-7.58,5.31-11.35
				c8.48-14.86,14.49-29.22,18.6-39.68c2.05-5.24,3.6-9.52,4.66-12.48c0.52-1.47,0.93-2.61,1.22-3.41c0.14-0.37,0.24-0.67,0.32-0.89
				C593.7,498.75,593.74,498.65,593.75,498.65z"/>
		</g>
	</g>
	<g>
		<g>
			<path style="fill:#1A2E35;" d="M586.03,548.34c0.01,0.01-0.08,0.17-0.26,0.48c-0.21,0.34-0.47,0.79-0.81,1.33
				c-0.7,1.16-1.75,2.81-3.05,4.85c-2.59,4.08-6.29,9.65-10,16.02c-1.85,3.2-3.48,6.31-4.86,9.2c-1.39,2.89-2.48,5.57-3.35,7.83
				c-0.85,2.27-1.51,4.13-1.91,5.43c-0.2,0.61-0.37,1.1-0.5,1.49c-0.12,0.34-0.19,0.51-0.2,0.51c-0.01,0,0.03-0.19,0.12-0.54
				c0.11-0.39,0.25-0.89,0.42-1.51c0.36-1.32,0.97-3.19,1.79-5.49c0.84-2.29,1.91-4.99,3.28-7.9c1.37-2.91,3-6.05,4.85-9.25
				c3.73-6.39,7.46-11.93,10.12-15.97c1.31-1.98,2.39-3.6,3.16-4.77c0.36-0.53,0.65-0.96,0.87-1.29
				C585.91,548.48,586.02,548.33,586.03,548.34z"/>
		</g>
	</g>
	<g>
		<path style="fill:#375A64;" d="M593.67,498.65c0.2-2.02-1.91-4.04-3.75-4.75s-3.89-0.48-5.81-0.04
			c-11.12,2.55-20.31,12.49-22.29,24.11c5.13-2.63,10.42-4.95,15.82-6.93c-0.3,0.09-0.61,0.18-0.91,0.27
			c5.22-1.05,9.92-4.61,12.47-9.44c0.49-0.93,0.92-1.93,1.67-2.65C591.6,498.5,592.78,498.12,593.67,498.65"/>
	</g>
	<g>
		<path style="fill:#375A64;" d="M593.68,498.63c5.07-3.58,11.47-5.19,17.51-4.07c6.04,1.12,11.6,5.05,14.55,10.62
			c2.94,5.57,3.08,12.71,0.09,18.26c-2.83-6.09-5.86-12.43-11.13-16.42c-1.23-0.93-2.63-1.79-3.32-3.2
			c-0.81-1.64-0.48-3.66-1.17-5.35c-0.85-2.08-3.19-2.69-5.37-2.81C602.66,495.55,596.34,497.63,593.68,498.63"/>
	</g>
	<g>
		<path style="fill:#375A64;" d="M593.54,498.53c5.24-1.61,11.16,1.04,14.72,5.1c3.56,4.06,5.37,9.51,5.99,14.96
			c0.61,5.45,0.12,10.96-0.41,16.42c-4.09-6.32-7.15-13.35-9.02-20.7c-0.84-3.33-1.46-6.76-2.97-9.83
			C600.34,501.43,596.83,499.03,593.54,498.53"/>
	</g>
	<g>
		<path style="fill:#375A64;" d="M593.37,498.65c4.18-2.01,6.54-6.53,7.08-11.28c0.54-4.74-1.45-9.71-5.07-12.66
			c-4.17,3.93-5.77,10.52-3.9,16.03C592.36,493.34,593.97,495.96,593.37,498.65"/>
	</g>
	<g>
		<g>
			<path style="fill:#1A2E35;" d="M559.93,586.53c-0.01,0-0.1-0.22-0.26-0.65c-0.17-0.43-0.37-1.08-0.69-1.89
				c-0.61-1.64-1.56-3.97-2.86-6.8c-2.59-5.66-6.68-13.24-11.81-21.19c-5.13-7.96-10.27-14.82-14.35-19.44
				c-2.04-2.31-3.8-4.08-5.13-5.15c-0.66-0.54-1.21-0.91-1.59-1.15c-0.39-0.21-0.6-0.33-0.59-0.34c0.01-0.01,0.22,0.08,0.63,0.27
				c0.4,0.21,0.97,0.56,1.65,1.09c1.37,1.04,3.18,2.79,5.25,5.08c4.15,4.59,9.34,11.44,14.48,19.41c5.14,7.97,9.2,15.59,11.73,21.3
				c1.27,2.85,2.18,5.22,2.75,6.87c0.3,0.82,0.48,1.48,0.62,1.92C559.88,586.3,559.94,586.53,559.93,586.53z"/>
		</g>
	</g>
	<g>
		<polygon style="fill:#5143D9;" points="574.98,636.03 546.39,636.03 541.93,601.75 580.3,601.75 		"/>
	</g>
	<g>
		<g>
			<path style="fill:#375A64;" d="M601.77,560.6c-2.89-6.42-10.31-10.61-17.12-10.03c1.52,0.63,2.45,2.26,2.83,3.91
				c0.38,1.65,0.31,3.37,0.44,5.05c0.61,8.11,5.65,15.02,10.49,21.43c3.4,4.5,6.82,9.02,10.88,12.89
				C608.81,582.32,608.11,570.1,601.77,560.6z"/>
		</g>
		<g>
			<path style="fill:#375A64;" d="M584.65,550.66c4.32-3.45,9.91-4.88,15.37-4.94c5.46-0.06,10.85,1.16,16.15,2.55
				c3.18,0.83,6.41,1.76,9.13,3.66c2.72,1.9,4.88,4.96,4.94,8.36c-4.49-5.11-11.72-6.1-18.13-8.02c-4.34-1.31-8.53-3.17-12.96-4.13
				C594.73,547.18,588.57,548.31,584.65,550.66"/>
		</g>
		<g>
			<path style="fill:#375A64;" d="M585.39,549.74c-1.9-2.06-0.85-6.88,0.8-9.16c1.65-2.28,4.28-3.55,6.87-4.51
				c3.41-1.26,6.96-2.11,10.55-2.54c-0.36,2.34-1.69,4.43-3.34,6.07c-1.65,1.65-3.61,2.91-5.55,4.15
				C591.62,545.76,588.5,547.75,585.39,549.74"/>
		</g>
		<g>
			<path style="fill:#375A64;" d="M567.6,546.97c-5.42,2.46-9.62,7.05-13.66,11.53c6-1.51,11.77-3.99,17.05-7.31
				c2.1-1.32,4.18-2.8,6.58-3.36c2.4-0.55,5.09,0.55,7.09,2.27C581.26,544.93,573.02,544.51,567.6,546.97z"/>
		</g>
		<g>
			<path style="fill:#375A64;" d="M565.05,583.69c3.03-7.21,1.75-15.94,5.6-22.72c2.95-5.19,8.39-8.26,13.8-10.45
				c1.26,3.91,0.66,8.26-0.93,12.03s-4.12,7.04-6.79,10.09c-3.69,4.22-7.69,8.12-11.7,12.02"/>
		</g>
	</g>
	<g>
		<rect x="539.31" y="601.75" style="fill:#5143D9;" width="42.76" height="7.71"/>
	</g>
	<g>
		<g>
			<path style="fill:#1A2E35;" d="M580.64,609.71c0,0.12-9.25,0.22-20.67,0.22c-11.42,0-20.67-0.1-20.67-0.22
				c0-0.12,9.25-0.22,20.67-0.22C571.39,609.49,580.64,609.59,580.64,609.71z"/>
		</g>
	</g>
	<g>
		<path style="fill:#375A64;" d="M595.64,498.95c-1.5-2.69-3.01-5.4-4.97-7.74c-1.96-2.35-4.43-4.34-7.31-5.21
			c-3.85-1.17-7.99-0.24-11.84,0.94c-4.5,1.39-8.9,3.12-13.14,5.18c5.55,2.19,11.85,2.31,17.47,0.32c2.94-1.04,5.8-0.9,8.89-0.54
			C588.49,492.35,593.2,495.96,595.64,498.95"/>
	</g>
	<g>
		<g>
			<path style="fill:#375A64;" d="M493.47,544.64c-6.74,8.88-8.98,20.74-8.23,32.01c3.95-14.93,12.41-28.55,23.91-38.45
				c4.39-3.78,10.01-6.78,15.46-6.78C513.41,530.39,500.42,535.48,493.47,544.64z"/>
		</g>
		<g>
			<path style="fill:#375A64;" d="M509.12,526.8c-3.76,0.29-7.19,2.26-10.3,4.47c-4.76,3.38-9.22,7.65-11.29,13.22
				c8.29-10.32,21.81-15.85,34.67-14.17C518.1,528.21,513.68,526.46,509.12,526.8z"/>
		</g>
		<g>
			<path style="fill:#375A64;" d="M519.65,513.47c-2.18,1.56-3.84,4.13-3.73,6.88c0.08,1.88,0.97,3.64,2.16,5.06
				c1.19,1.42,3.09,3.39,4.55,4.51c1.38-6.33,3.04-12.94,4.42-19.27C524.46,511.18,521.83,511.9,519.65,513.47z"/>
		</g>
		<g>
			<path style="fill:#375A64;" d="M532.38,512.86c-2.94,1.95-5.56,4.58-6.99,7.88c-1.43,3.3-2.03,7.46-0.22,10.56
				c5.13-7.89,10.75-15.8,16.67-23.07C538.59,509.56,535.32,510.9,532.38,512.86z"/>
		</g>
		<g>
			<path style="fill:#375A64;" d="M543.18,523.73c-6.74-0.56-13.68,2.58-17.85,8.1c2.77-1.48,6.49-2.29,9.58-1.88
				c8.29,1.11,16.51,2.69,24.63,4.73C556.28,528.55,549.92,524.29,543.18,523.73z"/>
		</g>
		<g>
			<path style="fill:#375A64;" d="M526.11,531.29c-6.35,0.36-11.9,5.42-14.12,11.59c-2.22,6.17-1.46,13.17,0.94,19.27
				c2.4,6.1,6.32,11.42,10.47,16.4c2.09-7.42,4.18-14.88,5.1-22.55C529.41,548.34,528.72,538.54,526.11,531.29z"/>
		</g>
	</g>
	<g style="opacity:0.3;">
		<g>
			<path d="M493.47,544.64c-6.74,8.88-8.98,20.74-8.23,32.01c3.95-14.93,12.41-28.55,23.91-38.45c4.39-3.78,10.01-6.78,15.46-6.78
				C513.41,530.39,500.42,535.48,493.47,544.64z"/>
		</g>
		<g>
			<path d="M509.12,526.8c-3.76,0.29-7.19,2.26-10.3,4.47c-4.76,3.38-9.22,7.65-11.29,13.22c8.29-10.32,21.81-15.85,34.67-14.17
				C518.1,528.21,513.68,526.46,509.12,526.8z"/>
		</g>
		<g>
			<path d="M519.65,513.47c-2.18,1.56-3.84,4.13-3.73,6.88c0.08,1.88,0.97,3.64,2.16,5.06c1.19,1.42,3.09,3.39,4.55,4.51
				c1.38-6.33,3.04-12.94,4.42-19.27C524.46,511.18,521.83,511.9,519.65,513.47z"/>
		</g>
		<g>
			<path d="M532.38,512.86c-2.94,1.95-5.56,4.58-6.99,7.88c-1.43,3.3-2.03,7.46-0.22,10.56c5.13-7.89,10.75-15.8,16.67-23.07
				C538.59,509.56,535.32,510.9,532.38,512.86z"/>
		</g>
		<g>
			<path d="M543.18,523.73c-6.74-0.56-13.68,2.58-17.85,8.1c2.77-1.48,6.49-2.29,9.58-1.88c8.29,1.11,16.51,2.69,24.63,4.73
				C556.28,528.55,549.92,524.29,543.18,523.73z"/>
		</g>
		<g>
			<path d="M526.11,531.29c-6.35,0.36-11.9,5.42-14.12,11.59c-2.22,6.17-1.46,13.17,0.94,19.27c2.4,6.1,6.32,11.42,10.47,16.4
				c2.09-7.42,4.18-14.88,5.1-22.55C529.41,548.34,528.72,538.54,526.11,531.29z"/>
		</g>
	</g>
	<g style="opacity:0.2;">
		<g>
			<path d="M601.77,560.6c-2.89-6.42-10.31-10.61-17.12-10.03c1.52,0.63,2.45,2.26,2.83,3.91c0.38,1.65,0.31,3.37,0.44,5.05
				c0.61,8.11,5.65,15.02,10.49,21.43c3.4,4.5,6.82,9.02,10.88,12.89C608.81,582.32,608.11,570.1,601.77,560.6z"/>
		</g>
		<g>
			<path d="M584.65,550.66c4.32-3.45,9.91-4.88,15.37-4.94c5.46-0.06,10.85,1.16,16.15,2.55c3.18,0.83,6.41,1.76,9.13,3.66
				c2.72,1.9,4.88,4.96,4.94,8.36c-4.49-5.11-11.72-6.1-18.13-8.02c-4.34-1.31-8.53-3.17-12.96-4.13
				C594.73,547.18,588.57,548.31,584.65,550.66"/>
		</g>
		<g>
			<path d="M585.39,549.74c-1.9-2.06-0.85-6.88,0.8-9.16c1.65-2.28,4.28-3.55,6.87-4.51c3.41-1.26,6.96-2.11,10.55-2.54
				c-0.36,2.34-1.69,4.43-3.34,6.07c-1.65,1.65-3.61,2.91-5.55,4.15C591.62,545.76,588.5,547.75,585.39,549.74"/>
		</g>
		<g>
			<path d="M567.6,546.97c-5.42,2.46-9.62,7.05-13.66,11.53c6-1.51,11.77-3.99,17.05-7.31c2.1-1.32,4.18-2.8,6.58-3.36
				c2.4-0.55,5.09,0.55,7.09,2.27C581.26,544.93,573.02,544.51,567.6,546.97z"/>
		</g>
		<g>
			<path d="M565.05,583.69c3.03-7.21,1.75-15.94,5.6-22.72c2.95-5.19,8.39-8.26,13.8-10.45c1.26,3.91,0.66,8.26-0.93,12.03
				s-4.12,7.04-6.79,10.09c-3.69,4.22-7.69,8.12-11.7,12.02"/>
		</g>
	</g>
</g>
<g>
	<g>
		<path style="fill:#5143D9;" d="M515.84,215.92h-36.58c-6.22,0-11.26,5.22-11.26,11.66l0,32.97c0,6.44,5.04,11.66,11.26,11.66
			h10.68l-2.58,10.41l10.16-10.41h18.32c6.22,0,11.26-5.22,11.26-11.66l0-32.97C527.1,221.14,522.06,215.92,515.84,215.92z"/>
		<path style="opacity:0.7;fill:#FFFFFF;" d="M515.84,215.92h-36.58c-6.22,0-11.26,5.22-11.26,11.66l0,32.97
			c0,6.44,5.04,11.66,11.26,11.66h10.68l-2.58,10.41l10.16-10.41h18.32c6.22,0,11.26-5.22,11.26-11.66l0-32.97
			C527.11,221.14,522.06,215.92,515.84,215.92z"/>
	</g>
	<g>
		<g style="enable-background:new    ;">
			<ellipse style="fill:#5143D9;" cx="497.55" cy="243.92" rx="18.15" ry="18.8"/>
		</g>
		<g>
			<path style="fill:#FFFFFF;" d="M495.65,252.32c-0.49,0-0.95-0.22-1.27-0.61l-7.12-8.69c-0.6-0.73-0.51-1.82,0.19-2.44
				c0.7-0.62,1.75-0.53,2.35,0.2l5.85,7.14l9.66-11.79c0.6-0.73,1.65-0.82,2.35-0.2c0.7,0.62,0.79,1.71,0.19,2.44l-10.93,13.34
				C496.6,252.1,496.14,252.32,495.65,252.32z"/>
		</g>
	</g>
</g>
<g>
	<g>
		<path style="fill:#1A2E35;" d="M413.52,342.41c0.07,0.67-0.4,1.21-1.05,1.21h-11.64c-0.65,0-1.24-0.54-1.32-1.21l-2.6-23.79
			c-0.07-0.67,0.4-1.38,1.05-1.38h11.64c0.65,0,1.24,0.71,1.32,1.38L413.52,342.41z"/>
		<path style="opacity:0.5;fill:#FFFFFF;" d="M409.63,318.47l2.63,24.02c0.07,0.68-0.27,1.14-0.92,1.14h-9.87
			c-0.66,0-1.87-0.38-1.95-1.05l-2.63-24.1c-0.07-0.68,1.06-1.22,1.72-1.22h9.87C409.13,317.25,409.55,317.79,409.63,318.47z"/>
	</g>
	<path style="fill:#5143D9;" d="M418.66,339.85c-2.56,5.12-5.46,10.57-8.42,15.49c-2.66,4.29-5.46,8.91-9.16,11.99
		c-0.4,0.33-0.66,0.35-0.17,0.37c1.1-0.07,2.73,0.6,3.16,1.48c-1.39-1.71-2.01-5.39-2.62-7.86c-1.19-5.68-1.96-11.88-2.82-17.92
		c-0.54-4.52-6.79-4.68-7.56-0.23c-1.76,11.24-5.16,42.62,13.52,38.33c12.27-3.91,22.43-23.44,27.86-34.78
		C436.31,337.2,423.41,330.79,418.66,339.85L418.66,339.85z"/>
	<path style="fill:#CC7A63;" d="M399.97,326.28l-3.22,0.85c-1.21,0.32-2.2,1.23-2.65,2.43l-2.11,5.64c-0.84,2.26-0.58,4.8,0.7,6.82
		l0.8,1.25c5.44-1.03,10.58-6.3,10.58-6.3l1.63-1.33c1.45-1.19,1.73-3.23,0.64-4.7l-2.51-3.37
		C402.95,326.42,401.42,325.9,399.97,326.28z"/>
	<g>
		<path style="fill:#007CFF;" d="M399.21,346.35c0,0-5.94-0.48-8.63-2.12l0.75-5.13l8.45,1.92L399.21,346.35z"/>
		<path style="fill:#5143D9;" d="M399.21,346.35c0,0-5.94-0.48-8.63-2.12l0.75-5.13l8.45,1.92L399.21,346.35z"/>
		<path style="opacity:0.6;fill:#FFFFFF;enable-background:new    ;" d="M399.21,346.35c0,0-5.94-0.48-8.63-2.12l0.75-5.13
			l8.45,1.92L399.21,346.35z"/>
	</g>
	<path style="opacity:0.2;enable-background:new    ;" d="M411.22,377.87c0.73-0.58,1.39-1.17,2.02-1.77
		c1.37-1.32,2.58-2.64,3.73-3.98c2.27-2.66,4.18-5.42,6.01-8.18c0.14-0.21,0.28-0.44,0.41-0.65c-2.16-3.65-4.38-6.08-4.38-6.08
		S412.48,365.72,411.22,377.87z"/>
	<path style="fill:#5143D9;" d="M417.77,405.02h43.09c-0.11-5.1-0.09-10.07,0.08-14.83c0.18-5.82,0.55-11.34,1.02-16.47
		c0.46-5.12,1.03-9.85,1.62-14.1c0.15-1.08,0.31-2.15,0.46-3.16c1.85-12.08,3.77-19.48,3.77-19.48c-23.5-11.75-45.6-0.98-45.6-0.98
		C410.98,352.82,417.77,405.02,417.77,405.02z"/>
	<path style="opacity:0.2;enable-background:new    ;" d="M427.35,357.4c0,0,12.01,48.49,33.59,32.78
		c0.18-5.82,0.55-11.34,1.02-16.47c0.46-5.12,1.03-9.85,1.62-14.1c0.15-1.08,0.31-2.15,0.46-3.16c-3.2-4.18-6.35-6.8-6.35-6.8
		s-5.93,11.37-8.9,20.7c0,0-13.84-18.87-16.36-19.31C429.9,350.61,427.35,357.4,427.35,357.4z"/>
	<path style="fill:#CC7A63;" d="M398.37,515.07c0.56,0.71,1.12,1.4,1.68,2.08c3.12,4.63,6.82,10,10.89,15.8
		c4.76,6.83,10.01,14.24,15.3,21.76c1.83,2.6,3.68,5.22,5.51,7.82c5.45,7.74,10.81,15.39,15.62,22.4v0.01
		c1.23,1.79,2.43,3.56,3.58,5.26c8.53,12.57,14.66,22.32,15.36,25.52c1.24,1.33,6.29-2.4,6.9-4.35c0,0-5.62-20.51-17.3-46.11
		c-0.81-1.79-1.66-3.61-2.53-5.45c-5.62-11.76-12.47-24.34-20.58-36.34c-1.03-1.54-2.09-3.06-3.17-4.58
		c-3.77-5.29-7.78-10.4-12.06-15.26c1.77-2.81,3.46-5.54,5.07-8.24c0.8-1.35,1.59-2.68,2.36-4h0.01c2.55-4.38,4.9-8.62,7.08-12.71
		c0.51-0.95,0.99-1.89,1.48-2.81c6.37-12.21,11.09-23.02,14.59-32.11c0.22-0.55,0.42-1.11,0.62-1.65c7.05-18.69,8.73-29.6,8.73-29.6
		l-26.34-5.47l-2.5-0.51l-7.81-1.61c0,0-4.55,13.96-9.96,32.64c-0.47,1.62-0.94,3.28-1.43,4.97c-2,7.02-4.07,14.56-6.04,22.17
		c-1.68,6.51-3.3,13.07-4.71,19.42c-0.09,0.41-0.18,0.8-0.27,1.21c-1.18,5.26-2.22,10.36-3.04,15.14l-0.03,0.08
		C394.05,505.6,395.14,511.04,398.37,515.07z"/>
	<path style="opacity:0.2;" d="M426.24,554.71c1.83,2.6,3.68,5.22,5.51,7.82c5.45,7.74,10.81,15.39,15.62,22.4v0.01
		c1.23,1.79,2.43,3.56,3.58,5.26c1.49-6.46,3.36-15.28,4.95-24.95c-0.81-1.79-1.66-3.61-2.53-5.45
		c-5.62-11.76-12.47-24.34-20.58-36.34c-1.03-1.54-2.09-3.06-3.17-4.58C429.12,527.3,428.1,541.13,426.24,554.71z"/>
	<g>
		<path style="fill:#1A2E35;" d="M479.73,622.5l-1.57,0.97l-1.59-1.73l-3.78,5.63l-13.12,8.14c0,0-3.34-0.88,1.91-6.48
			c0.24-0.26,0.47-0.55,0.68-0.9c2.4-3.68,3.98-12.09,3.98-12.09l7.2-4.46c0,0,0.47,0.22,1.21,0.71
			C476.39,613.43,479.74,616.03,479.73,622.5z"/>
		<path style="fill:#CC7A63;" d="M474.65,612.28c0.01,0.01,0.01,0.02,0.01,0.02c-1.58-0.51-3.12,6.99-5.34,10.6
			c-1.99,3.21-4.79,5.83-7.06,5.22c2.4-3.68,3.55-14,3.55-14l5.79-3.59C471.61,610.54,473.91,611.79,474.65,612.28z"/>
	</g>
	<path style="fill:#CC7A63;" d="M425.08,624.99c1.66,1.52,5.09,2.36,9.09,1.91c0,0,6.96-17.43,13.2-39.96v-0.01
		c2.2-7.93,4.32-16.47,6-25.12c3.4-17.43,5.08-35.23,2.32-49c1.55-5.66,2.92-11.02,4.09-16.11c0.29-1.25,0.57-2.49,0.84-3.72h0.01
		c3.96-17.89,5.72-32.37,6.21-43.92c0-0.05,0-0.12,0.01-0.17c1.21-30.04-6.24-40.36-6.24-40.36l-32.3-6.57c0,0,0.08,1.48,0.22,4.09
		c0.04,0.74,0.09,1.57,0.14,2.49c0.37,6.44,0.94,17.04,1.55,29.29c0.08,1.64,0.17,3.31,0.24,5c0.48,10.26,0.99,21.38,1.4,32
		c0.08,1.98,0.15,3.93,0.22,5.87c0.18,4.81,0.33,9.47,0.43,13.83c0.01,0.46,0.03,0.91,0.04,1.36c0.1,3.84,0.19,7.42,0.23,10.68
		c0.06,5.76,0.08,12.16,0.01,18.91c-0.1,12.32-0.43,25.86-1.04,39.06C430.62,589.18,428.52,612.67,425.08,624.99z"/>
	<path style="opacity:0.2;" d="M463.58,359.61c-0.59,4.25-1.16,8.98-1.62,14.1c-1.97-4.06-4.31-13.77-1.23-24.06L463.58,359.61z"/>
	<path style="fill:#CC7A63;" d="M419.52,339.1l3.33,0.02c1.25,0.01,2.42,0.64,3.14,1.7l3.36,4.95c1.34,1.98,1.68,4.51,0.9,6.79
		l-0.48,1.41c-5.52,0.35-11.73-3.48-11.73-3.48l-1.89-0.89c-1.68-0.79-2.42-2.71-1.71-4.4l1.65-3.9
		C416.65,339.97,418.02,339.08,419.52,339.1z"/>
	<path style="fill:#5143D9;" d="M445.52,328.42c13.51-0.01,15.21,11.51,15.21,11.51l-6.32-2.82l-18.57,12.86l-4.56-12.98l-5.73,1.1
		C425.56,338.1,433.78,328.43,445.52,328.42z"/>
	<path style="opacity:0.6;fill:#FFFFFF;enable-background:new    ;" d="M445.52,328.42c13.51-0.01,15.21,11.51,15.21,11.51
		l-6.32-2.82l-18.57,12.86l-4.56-12.98l-5.73,1.1C425.56,338.1,433.78,328.43,445.52,328.42z"/>
	<g>
		<path style="fill:#1A2E35;" d="M434.08,635.02l-1.82,0l-0.51-2.33l-6.04,2.82h-15.29c0,0-2.43-2.53,4.85-4.55
			c0.33-0.09,0.67-0.22,1.03-0.41c3.88-1.89,9.41-8.25,9.41-8.25h8.39c0,0,0.29,0.44,0.69,1.25
			C435.71,625.46,437.3,629.47,434.08,635.02z"/>
		<path style="fill:#CC7A63;" d="M434.8,623.55c0,0.01,0,0.03,0,0.03c-1.11-1.28-6.15,4.34-9.84,6.25c-3.3,1.7-7,2.45-8.65,0.73
			c3.88-1.89,9.99-10.12,9.99-10.12h6.75C433.05,620.43,434.4,622.73,434.8,623.55z"/>
	</g>
	<path style="fill:#1A2E35;" d="M417.37,401.43h43.44l1.17,5.79c0,0,16.47,24.24,4.05,82.55c0,0-36.23-1.1-69.14-8.41
		c0,0,12.48-55.96,20.21-75.09L417.37,401.43z"/>
	<g>
		<polygon style="fill:#5143D9;" points="447.86,406.41 462.43,406.41 461.55,402.11 447.86,402.11 		"/>
		<polygon style="fill:#5143D9;" points="421.38,402.11 417.02,402.11 416.64,406.41 421.38,406.41 		"/>
		<rect x="422.83" y="402.11" style="fill:#5143D9;" width="23.61" height="4.3"/>
		<polygon style="opacity:0.6;fill:#FFFFFF;enable-background:new    ;" points="447.86,406.41 462.43,406.41 461.55,402.11 
			447.86,402.11 		"/>
		<polygon style="opacity:0.6;fill:#FFFFFF;enable-background:new    ;" points="421.38,402.11 417.02,402.11 416.64,406.41 
			421.38,406.41 		"/>
		<rect x="422.83" y="402.11" style="opacity:0.6;fill:#FFFFFF;enable-background:new    ;" width="23.61" height="4.3"/>
		<path style="fill:#FFFFFF;" d="M435.93,406.74h-6.52c-0.4,0-0.73-0.33-0.73-0.73v-3.5c0-0.4,0.33-0.73,0.73-0.73h6.52
			c0.4,0,0.73,0.33,0.73,0.73v3.5C436.66,406.42,436.34,406.74,435.93,406.74z"/>
	</g>
	<g>
		<path style="fill:#CC7A63;" d="M433.64,333.51c0,0,2.81,15.59,2.81,15.69l17.43-15.69c-3.22-3.42-2.75-11.37-1.55-17.96
			c0,0-0.01,0,0-0.01c0.37-2.07,0.81-4.01,1.24-5.63l-13.2,11c0.41,2.4,0.57,4.87-0.06,7C439.55,330.45,437.65,332.53,433.64,333.51
			z"/>
		<path style="opacity:0.2;enable-background:new    ;" d="M440.3,327.9c8.94-0.44,12.03-12.36,12.03-12.36s-0.01,0,0-0.01
			c0.37-2.07,0.81-4.01,1.24-5.63l-13.2,11C440.77,323.3,440.94,325.77,440.3,327.9z"/>
	</g>
	<g>
		<path style="fill:#1A2E35;" d="M425.19,295.99c0,0-5.08-1.46-3.94-5.11c1.13-3.65,2.9-3.78,2.9-3.78s-3.02-4.43-1.01-9.39
			c2.01-4.96,7.56-3.52,7.56-3.52s-0.45-5.35,4.43-6.78c4.88-1.43,7.4,3.17,7.4,3.17s2.99-4.87,8.04-4.08
			c5.06,0.78,6.69,7.83,6.69,7.83s4.41-2.13,7.18,2.78c2.77,4.91,0,9.11,0,9.11s3.02-1.84,4.53,3.31c1.51,5.15-3.4,10.31-3.4,10.31
			s2.9,0.09,1.76,4.12s-5.79,4.55-5.79,4.55s1.89,0.78-1.26,4.3c-3.15,3.52-14.58,0-14.58,0L425.19,295.99z"/>
		<path style="fill:#CC7A63;" d="M437.95,286.35c-10.49,1.57-13.06,7.89-12.27,19.21c0.99,14.14,5.38,23.64,18.08,18.68
			C461.01,317.52,455.38,283.74,437.95,286.35z"/>
		<path style="fill:#B84D3C;" d="M432.38,303.94c0,0-1.06,3.06-2.43,4.96c0,0,1.1,1.34,2.94,0.82L432.38,303.94z"/>
		<g>
			<path style="fill:#1A2E35;" d="M438.68,302.09c0.1,0.9,0.66,1.56,1.23,1.49c0.58-0.07,0.96-0.86,0.86-1.75
				c-0.1-0.9-0.66-1.56-1.23-1.49C438.96,300.41,438.57,301.19,438.68,302.09z"/>
			<path style="fill:#1A2E35;" d="M439.78,300.35l-1.97-0.53C437.81,299.82,438.94,301.34,439.78,300.35z"/>
		</g>
		<g>
			<path style="fill:#1A2E35;" d="M427.9,303.24c0.1,0.9,0.66,1.56,1.23,1.49c0.58-0.07,0.96-0.86,0.86-1.75
				c-0.1-0.9-0.66-1.56-1.23-1.49C428.18,301.56,427.8,302.35,427.9,303.24z"/>
			<path style="fill:#1A2E35;" d="M429.01,301.5l-1.97-0.53C427.03,300.98,428.16,302.5,429.01,301.5z"/>
		</g>
		<path style="fill:#1A2E35;" d="M442.52,295.99c0.12,0,0.24-0.05,0.33-0.15c0.17-0.19,0.16-0.48-0.03-0.66
			c-2.05-1.96-5.08-1.11-5.21-1.07c-0.24,0.07-0.38,0.33-0.31,0.57c0.07,0.25,0.32,0.39,0.55,0.32c0.03-0.01,2.68-0.74,4.35,0.86
			C442.3,295.95,442.41,295.99,442.52,295.99z"/>
		<path style="fill:#1A2E35;" d="M425.99,297.23c0.11,0,0.21-0.04,0.3-0.12c1.89-1.75,3.59-1.43,3.67-1.41
			c0.25,0.05,0.48-0.11,0.53-0.36c0.05-0.25-0.1-0.5-0.35-0.55c-0.09-0.02-2.2-0.46-4.45,1.63c-0.19,0.17-0.2,0.47-0.03,0.66
			C425.74,297.18,425.86,297.23,425.99,297.23z"/>
		<path style="fill:#1A2E35;" d="M451.97,302.95c0,0-6.15-8.2-6.37-15.2c0,0-22.02-5.69-20,16.33c0,0-4.74-19.11,13.24-22.24
			c17.95-3.13,21.72,24.21,13.53,33.75C452.38,315.59,455.79,308.08,451.97,302.95z"/>
		<path style="fill:#CC7A63;" d="M450.58,305.5c-0.17-1.76,1.16-4.98,4.35-5.1c3.3-0.12,5.82,6.56-2.04,9.44
			C451.76,310.25,450.94,309.18,450.58,305.5z"/>
		<path style="fill:#1A2E35;" d="M435.35,315.87c1.05,0,4.84-0.28,6-4.29c0.07-0.25-0.06-0.51-0.3-0.58
			c-0.24-0.07-0.49,0.07-0.56,0.31c-1.14,3.92-5.16,3.64-5.34,3.63c-0.25-0.02-0.47,0.17-0.48,0.43c-0.02,0.26,0.16,0.48,0.41,0.5
			C435.09,315.86,435.19,315.87,435.35,315.87z"/>
		<path style="fill:#5143D9;" d="M455.49,298.59c-3.71-13.32-24.07-22.86-29.95-6.41c0,0,0.98-5.98,5.88-10.59
			c0,0,19.14-7.67,24.62,15.18L455.49,298.59z"/>
	</g>
	<path style="fill:#5143D9;" d="M458.21,345.25c-3.11,10.41-5.53,21.68-10.18,31.37c0.29-0.22,1.07-0.76,1.88-0.96
		c0.23-0.06,0.56-0.11,0.79-0.12c0.44,0,0.74,0.05,0.94,0.12c0.37,0.14,0.28,0.2,0.04,0.08c-2.84-1.74-5.26-5.18-7.55-8.21
		c-3.49-4.78-6.82-10.11-10.1-15.28c-2.44-3.76-8.06-1.01-6.84,3.31c3.26,10.51,12.41,37.37,26.46,33.86
		c5.53-1.8,7.83-7.43,10.13-12.13c4.04-9.13,6.82-18.37,9.21-28.02C475.1,339.13,461.18,335.35,458.21,345.25L458.21,345.25z"/>
	<g>
		<path style="fill:#007CFF;" d="M431.05,347.66c0,0-4.86,3.57-6.37,6.4l3.18,4.01l6.31-6.13L431.05,347.66z"/>
		<path style="fill:#5143D9;" d="M431.05,347.66c0,0-4.86,3.57-6.37,6.4l3.18,4.01l6.31-6.13L431.05,347.66z"/>
		<path style="opacity:0.6;fill:#FFFFFF;enable-background:new    ;" d="M431.47,347.71c0,0-4.97,3.42-6.56,6.2l3.06,4.1l6.49-5.94
			L431.47,347.71z"/>
	</g>
	<path style="fill:#5143D9;" d="M467.81,336.97c4.32,2.68,7.53,5.25,4.98,12.68c-3.03,8.83-16.3,3.21-16.3,3.21
		s0.07-6.95,2.75-10.47C461.92,338.87,467.81,336.97,467.81,336.97z"/>
</g>
</svg>
